<svg viewBox="0 0 170.16 227.89" xmlns="http://www.w3.org/2000/svg" xmlns:xlink="http://www.w3.org/1999/xlink" id="Layer_1" overflow="hidden"><defs><filter id="drop-shadow-1" x="-10%" y="-10%" width="120%" height="120%" filterUnits="userSpaceOnUse" primitiveUnits="userSpaceOnUse"><feOffset dx="-2" dy="0"/><feGaussianBlur result="blur" stdDeviation="1 1"/><feFlood flood-opacity="0.23"/><feComposite in2="blur" operator="in" k1="0" k2="0" k3="0" k4="0"/><feComposite in="SourceGraphic" operator="over" k1="0" k2="0" k3="0" k4="0"/></filter><filter id="drop-shadow-2" x="-10%" y="-10%" width="120%" height="120%" filterUnits="userSpaceOnUse" primitiveUnits="userSpaceOnUse"><feOffset dx="2" dy="0"/><feGaussianBlur result="blur-2" stdDeviation="1 1"/><feFlood flood-opacity="0.23"/><feComposite in2="blur-2" operator="in" k1="0" k2="0" k3="0" k4="0"/><feComposite in="SourceGraphic" operator="over" k1="0" k2="0" k3="0" k4="0"/></filter><linearGradient x1="-2806.01" y1="-1837.58" x2="-2806.01" y2="-1848.4" gradientUnits="userSpaceOnUse" id="linear-gradient" gradientTransform="matrix(-0.989826 -0.142283 -0.142283 0.989826 -2949.99 1451.67)"><stop offset="0" stop-color="#5D441A"/><stop offset="0.23" stop-color="#503C19"/><stop offset="1" stop-color="#292211"/></linearGradient><linearGradient x1="-2788.64" y1="-1840.96" x2="-2788.64" y2="-1845.36" xlink:href="#linear-gradient" id="linear-gradient-2"></linearGradient><linearGradient x1="-2810.44" y1="-1833.35" x2="-2810.44" y2="-1842.23" xlink:href="#linear-gradient" id="linear-gradient-3"></linearGradient><linearGradient x1="-2811.52" y1="-1831.03" x2="-2811.52" y2="-1833.47" xlink:href="#linear-gradient" id="linear-gradient-4"></linearGradient></defs><g filter="url(#drop-shadow-1)"><path d="M100.67 41.6C100.72 39.72 101.59 38.55 100.78 36.84 100.05 35.3 98.32 34.08 96.35 33.96 94.48 33.85 92.46 34.73 91.48 36.5 90.43 38.39 91.09 40.32 91.26 40.81 92.04 43.12 94 44.12 94.41 44.33 96.63 48.65 98.85 52.98 101.08 57.3 101.83 59.07 103.01 61.36 104.9 63.71 106.82 66.1 108.76 68.52 112.14 69.69 114.69 70.57 117.03 70.39 119.29 70.21 121.27 70.05 122.54 69.71 124.75 69.18 127.06 68.62 130.41 67.84 134.62 66.96 133.76 63.28 132.9 59.6 132.04 55.92 130.3 55.91 127.73 56.05 124.77 56.9 121.2 57.92 120.16 59.09 117.97 59 116.46 58.94 115.27 58.32 110.68 54.08 100.81 44.96 100.65 42.59 100.68 41.6Z" fill="#BD8049"/><path d="M119.29 70.21C118.78 69.22 117.34 66.1 118.22 62.31 118.65 60.46 119.48 59.09 120.11 58.23 120.9 57.93 121.69 57.63 122.48 57.32 123.56 57.03 124.66 56.76 125.8 56.51 135.6 54.38 144.73 54.69 152.53 55.99 153.92 56.91 155.91 58.47 157.7 60.9 159.95 63.95 160.85 66.96 161.23 68.73 156.84 71.02 152.44 73.31 148.05 75.6 148.79 76.08 149.87 76.93 150.44 78.3 151.3 80.36 150.38 82.07 150.07 85.31 149.94 86.65 149.88 88.68 150.32 91.24L152.84 99.63 121.31 100.01C121.8 87.1 122.12 81.84 122.33 80.04 122.36 79.82 122.48 78.83 122.57 77.47 122.69 75.81 122.7 74.43 122.7 73.47 121.56 72.38 120.43 71.3 119.29 70.21Z" fill="#EE6544"/><path d="M122.48 57.33C122.7 55.91 122.89 54.43 123.02 52.87 123.07 52.27 123.12 51.67 123.15 51.09 123.15 51.09 123.26 50.26 124.1 46.74 124.44 44.78 124.29 43.25 124.1 42.26 123.92 41.31 123.66 40.57 123.15 39.17 122.2 36.52 121.89 36.49 121.7 35.26 121.51 34.05 121.81 34.07 121.83 31.6 121.84 29.53 121.63 29.41 121.7 27.75 121.79 25.8 121.83 24.8 122.52 23.84 123.25 22.83 124.27 22.43 125.36 22.01 127.11 21.33 128.63 21.36 129.52 21.38 130.76 21.41 131.56 21.61 132.86 21.88 137.99 22.98 137.9 22.62 139.99 23.27 142.73 24.12 144.13 24.56 145.35 25.79 147.74 28.2 147.74 31.92 147.75 34.87 147.75 39.67 146.29 41.53 147.75 44.27 148.06 44.85 148.36 45.21 149.58 47.3 150.53 48.94 151.16 50.01 151.53 50.83 152.13 52.14 152.81 54.37 152.41 57.77 152.27 59.56 151.9 62.05 150.83 64.83 150.05 66.86 148.63 70.59 146.79 70.57 146.43 70.57 145.96 70.42 144.02 68.05 142.23 65.86 141.33 64.76 140.74 63.57 139.21 60.46 139.28 57.29 139.54 55.31 136.66 55.52 133.78 55.73 130.9 55.94 129.39 55.99 127.67 56.16 125.8 56.52 124.6 56.75 123.49 57.03 122.48 57.33Z" fill="#422635"/><path d="M125.16 26.56C124.45 26.59 123.93 28.7 123.77 29.97 123.65 30.91 123.73 31.37 123.77 33.06 123.83 35.2 123.73 35.35 123.77 36.78 123.84 39.55 123.88 40.94 124.46 42.46 124.71 43.11 125.65 45.56 128.12 46.94 131.64 48.91 135.48 47.16 135.94 46.94L136.89 46.18C135.6 47.16 134.61 48.07 133.93 48.77 132.8 49.91 132.04 50.69 131.41 51.99 131.08 52.68 130.67 53.54 130.72 54.7 130.74 55.14 130.77 56.05 131.35 56.84 132.47 58.39 134.73 58.27 135.26 58.23 136.7 58.1 138.59 57.32 139.23 55.77 139.61 54.85 139.32 54.23 138.95 52.3 138.56 50.28 138.03 47.48 138.54 45.24 138.81 44.08 139.5 42.41 141.57 40.64 141.77 40.72 143.15 41.21 144.41 40.45 146.1 39.44 145.88 37.21 145.86 37.04 145.62 34.9 143.58 33.97 143.4 33.89 143.07 33.74 141.95 33.27 140.63 33.7 138.87 34.27 138.25 35.95 138.17 36.16 137.45 33.67 136.33 32.69 135.46 32.25 133.62 31.32 132.32 32.55 129.91 31.43 128.23 30.65 127.07 29.22 126.95 29.07 125.83 27.66 125.71 26.56 125.18 26.58Z" fill="#BD8049"/><path d="M131.6 37.05C131.6 37.05 131.6 37.07 131.6 37.08 131.6 37.08 131.6 37.08 131.6 37.08 131.6 37.08 131.6 37.08 131.6 37.08 131.6 37.08 131.64 37.41 131.64 37.41 131.68 37.57 131.75 37.71 131.86 37.84 131.95 37.98 132.07 38.08 132.21 38.16L132.51 38.29C132.68 38.34 132.84 38.35 133.01 38.31 133.12 38.31 133.23 38.28 133.33 38.22 133.48 38.17 133.62 38.08 133.73 37.96L133.93 37.71C134.04 37.52 134.1 37.3 134.1 37.08 134.1 37.04 134.1 36.99 134.1 36.95 134.1 36.78 134.07 36.62 133.99 36.47 133.94 36.32 133.85 36.18 133.73 36.07 133.62 35.95 133.48 35.86 133.33 35.81 133.18 35.73 133.02 35.7 132.85 35.7L132.52 35.74C132.31 35.8 132.12 35.91 131.97 36.06L131.77 36.31C131.66 36.5 131.6 36.72 131.6 36.94 131.6 36.98 131.6 37.03 131.6 37.07L134.06 36.74 134.06 36.74C134.07 36.85 134.09 36.96 134.1 37.07 134.1 37.06 134.1 37.05 134.1 37.03 134.1 36.86 134.07 36.7 133.99 36.55 133.94 36.4 133.85 36.26 133.73 36.15 133.62 36.03 133.48 35.94 133.33 35.89 133.18 35.81 133.02 35.78 132.85 35.78L132.52 35.82C132.31 35.88 132.12 35.99 131.97 36.14L131.77 36.39C131.66 36.58 131.6 36.8 131.6 37.02L131.6 37.02Z" fill="#642021"/><path d="M124.72 34.53C124.8 34.52 124.88 34.51 124.96 34.49 124.78 34.52 124.96 34.49 124.99 34.49 125.02 34.49 125.07 34.49 125.11 34.48 125.3 34.46 125.49 34.45 125.68 34.45 126.01 34.45 126.34 34.46 126.67 34.51 126.81 34.53 126.98 34.43 127.08 34.34 127.18 34.24 127.25 34.08 127.25 33.93 127.25 33.78 127.19 33.63 127.08 33.52 126.96 33.41 126.83 33.37 126.67 33.35 125.92 33.26 125.16 33.29 124.41 33.42 124.28 33.44 124.13 33.57 124.07 33.68 124 33.8 123.97 33.98 124.01 34.12 124.11 34.44 124.4 34.58 124.72 34.52L124.72 34.52Z" fill="#642021"/><path d="M131.86 34.65C131.98 34.63 132.09 34.61 132.21 34.59 132.08 34.61 132.3 34.58 132.32 34.58 132.37 34.58 132.43 34.57 132.48 34.56 132.75 34.53 133.01 34.52 133.28 34.51 133.75 34.51 134.22 34.53 134.69 34.59 134.99 34.63 135.28 34.3 135.27 34.01 135.25 33.67 135.02 33.48 134.69 33.43 133.65 33.3 132.59 33.34 131.56 33.52 131.26 33.57 131.07 33.95 131.16 34.23 131.26 34.55 131.55 34.69 131.87 34.63L131.87 34.63Z" fill="#642021"/><path d="M127.97 38.18 127.83 39.13 127.79 39.36C127.79 39.36 127.78 39.43 127.77 39.47 127.77 39.53 127.75 39.6 127.74 39.66 127.74 39.71 127.74 39.73 127.75 39.78 127.77 39.95 127.86 40.1 127.99 40.21 128.11 40.31 128.25 40.35 128.4 40.36 128.47 40.36 128.55 40.36 128.62 40.36 128.78 40.36 128.95 40.29 129.06 40.18 129.17 40.07 129.25 39.89 129.24 39.74 129.23 39.59 129.18 39.41 129.06 39.3 128.94 39.19 128.79 39.12 128.62 39.12 128.55 39.12 128.47 39.12 128.4 39.12L128.57 39.14 128.55 39.14C128.55 39.14 128.65 39.18 128.7 39.2L128.68 39.2C128.75 39.26 128.83 39.34 128.9 39.41L128.9 39.39C128.92 39.5 128.95 39.6 128.98 39.71 128.98 39.7 128.98 39.68 128.98 39.67L128.96 39.84 129.16 38.52C129.19 38.44 129.19 38.35 129.17 38.27 129.17 38.19 129.14 38.11 129.1 38.04 129.02 37.91 128.88 37.79 128.73 37.75 128.57 37.71 128.39 37.72 128.25 37.81 128.12 37.89 127.99 38.03 127.96 38.18L127.96 38.18Z" fill="#642021"/><path d="M141.35 36.85C141.32 36.68 141.35 36.97 141.35 36.8 141.35 36.75 141.35 36.71 141.35 36.67 141.35 36.61 141.37 36.56 141.35 36.65 141.36 36.6 141.37 36.55 141.38 36.5 141.38 36.48 141.43 36.35 141.4 36.44 141.37 36.53 141.42 36.4 141.43 36.38 141.45 36.34 141.48 36.3 141.5 36.26 141.51 36.24 141.59 36.14 141.54 36.21 141.49 36.28 141.57 36.17 141.59 36.16 141.62 36.12 141.66 36.09 141.69 36.06 141.7 36.05 141.81 35.96 141.74 36.02 141.67 36.08 141.79 35.99 141.8 35.98 141.88 35.93 141.97 35.89 142.05 35.84 142.11 35.81 141.96 35.87 142.07 35.84 142.12 35.82 142.17 35.81 142.22 35.79 142.3 35.77 142.39 35.75 142.48 35.73 142.51 35.73 142.67 35.72 142.53 35.73 142.58 35.73 142.62 35.73 142.67 35.73 142.72 35.73 142.76 35.73 142.81 35.73 142.65 35.73 142.85 35.72 142.86 35.75 142.86 35.73 142.75 35.69 142.86 35.75 142.98 35.82 142.86 35.75 142.86 35.75 142.86 35.75 142.96 35.84 142.96 35.84 142.97 35.85 143.05 35.96 143 35.88 142.95 35.8 143.02 35.92 143.03 35.93 143.06 35.98 143.08 36.02 143.1 36.07 143.15 36.17 143.1 36.03 143.11 36.1 143.12 36.14 143.14 36.19 143.16 36.23 143.19 36.34 143.22 36.45 143.25 36.55 143.34 36.87 143.7 37.09 144.02 36.99 144.34 36.89 144.55 36.56 144.46 36.22 144.3 35.64 144.09 35.09 143.58 34.73 143.07 34.37 142.44 34.44 141.9 34.6 141.36 34.76 140.86 35.08 140.51 35.54 140.16 36 140.04 36.63 140.16 37.21 140.23 37.53 140.62 37.75 140.93 37.65 141.27 37.54 141.44 37.22 141.37 36.88L141.37 36.88Z" fill="#642021"/><path d="M127.57 44.34C129.37 44.76 131.31 44.21 132.61 42.89 133.17 42.31 132.29 41.43 131.73 42.01 131.45 42.3 131.25 42.46 130.91 42.66 130.57 42.86 130.33 42.97 129.96 43.08 129.59 43.19 129.33 43.23 128.97 43.25 128.54 43.27 128.28 43.24 127.91 43.15 127.58 43.07 127.23 43.25 127.14 43.59 127.05 43.91 127.25 44.28 127.58 44.36L127.58 44.36Z" fill="#642021"/><path d="M124.22 37.12C124.22 37.12 124.22 37.14 124.22 37.15 124.22 37.15 124.22 37.15 124.22 37.15 124.22 37.15 124.22 37.15 124.22 37.15 124.22 37.15 124.26 37.45 124.26 37.45 124.29 37.6 124.36 37.72 124.46 37.83 124.54 37.95 124.64 38.05 124.78 38.12L125.05 38.23C125.2 38.28 125.35 38.28 125.5 38.25 125.6 38.25 125.7 38.22 125.78 38.17 125.92 38.12 126.04 38.05 126.14 37.94L126.32 37.71C126.42 37.53 126.47 37.35 126.47 37.14 126.47 37.1 126.47 37.05 126.47 37.01 126.47 36.86 126.44 36.71 126.37 36.58 126.32 36.44 126.25 36.32 126.14 36.22 126.04 36.11 125.92 36.03 125.78 35.99 125.65 35.92 125.5 35.89 125.35 35.89L125.05 35.93C124.86 35.98 124.69 36.08 124.55 36.22L124.37 36.45C124.27 36.63 124.22 36.81 124.22 37.02 124.22 37.06 124.22 37.11 124.22 37.15L126.43 36.85 126.43 36.85C126.44 36.95 126.46 37.05 126.47 37.15 126.47 37.14 126.47 37.13 126.47 37.11 126.47 36.96 126.44 36.81 126.37 36.68 126.32 36.54 126.25 36.42 126.14 36.32 126.04 36.21 125.92 36.13 125.78 36.09 125.65 36.02 125.5 35.99 125.35 35.99L125.05 36.03C124.86 36.08 124.69 36.18 124.55 36.32L124.37 36.55C124.27 36.73 124.22 36.91 124.22 37.12L124.22 37.12Z" fill="#642021"/><path d="M121.31 100.02C120.29 104.61 119.33 109.31 118.44 114.11 114.58 135.03 112.71 154.79 112.14 173.04 118.46 173.01 124.78 172.98 131.1 172.94 132.33 159.13 133.56 145.32 134.8 131.51 135.51 145.18 136.23 158.86 136.94 172.53 143.54 172.66 150.14 172.78 156.74 172.91 157.98 146.62 158.45 126.89 158.35 119.31 158.32 117.32 158.22 113.77 157.03 109.38 155.83 104.98 154.06 101.66 152.84 99.64" fill="#7E9ECD"/><path d="M135.47 100.11C133.32 99.94 132.2 98.88 130.46 99.64 128.07 100.68 127.51 103.91 127.43 104.37 127.07 106.62 127.7 109.54 129.98 111.27 130.46 111.64 132.79 113.41 135.47 112.41 137.28 111.73 138.59 110.01 138.88 107.96 143.17 105.78 147.46 103.61 151.74 101.43 154.31 99.67 156.54 98.47 158.09 97.69 162.63 95.43 164.72 95.21 166.75 92.71 168.51 90.55 168.87 88.37 168.93 87.94 169.25 85.78 168.72 84.04 168.38 83.17 165.99 78.36 163.61 73.54 161.22 68.73 156.83 71.02 152.43 73.31 148.04 75.6 150.44 78.13 152.17 80.46 153.37 82.24 155.14 84.87 155.29 85.63 155.24 86.28 155.07 88.41 152.79 89.28 148.5 92.09 140.37 97.41 139.27 100.4 135.47 100.1Z" fill="#BD8049"/><rect x="109.99" y="171.38" width="22.89" height="9.55" fill="#B5CBE9"/><rect x="135.26" y="170.75" width="23.98" height="9.55" fill="#B5CBE9"/><rect x="116.27" y="180.94" width="9.08" height="11.16" fill="#BD8049"/><rect x="143.51" y="180.3" width="9.08" height="9.08" fill="#BD8049"/><path d="M110.31 189.12C116.99 189.47 123.68 189.81 130.36 190.16 128.69 201.42 127.02 212.67 125.35 223.93 117.44 224.09 109.52 224.25 101.61 224.4 101.56 223.96 101.13 219.55 104.45 216.64 106.48 214.85 108.81 214.61 109.65 214.56 109.87 206.08 110.09 197.6 110.31 189.12Z" fill="#97479B"/><path d="M139.16 189.12C145.85 189.21 152.54 189.3 159.24 189.39 158 200.7 156.76 212.01 155.52 223.32 147.62 223.78 139.72 224.24 131.81 224.7 131.74 224.26 131.15 219.88 134.35 216.84 136.31 214.98 138.63 214.64 139.47 214.56 139.37 206.08 139.26 197.59 139.16 189.11Z" fill="#97479B"/><path d="M115.34 171.28 131.11 171.38C131.43 171.38 131.43 170.88 131.11 170.88L115.34 170.78C115.02 170.78 115.02 171.28 115.34 171.28L115.34 171.28Z" fill="#29266F"/><path d="M140.72 170.9C145.98 170.93 151.23 170.96 156.49 171 156.81 171 156.81 170.5 156.49 170.5 151.23 170.47 145.98 170.44 140.72 170.4 140.4 170.4 140.4 170.9 140.72 170.9L140.72 170.9Z" fill="#29266F"/><path d="M135.01 134.29C134.72 130.1 134.62 125.85 134.12 121.68 133.93 120.11 133.22 118.87 132.43 117.53 131.32 115.66 130.21 113.78 129.1 111.91 128.94 111.63 128.5 111.88 128.67 112.16 129.7 113.91 130.74 115.66 131.77 117.41 132.75 119.06 133.53 120.47 133.68 122.42 134 126.37 134.23 130.33 134.51 134.29 134.53 134.61 135.03 134.61 135.01 134.29L135.01 134.29Z" fill="#29266F"/><path d="M121.31 100.26C126.65 100.17 132 100.08 137.34 99.99 137.66 99.99 137.66 99.48 137.34 99.49 132 99.58 126.65 99.67 121.31 99.76 120.99 99.76 120.99 100.27 121.31 100.26L121.31 100.26Z" fill="#29266F"/><path d="M122.98 73.29C123.21 71.1 123.28 68.81 123.9 66.69 124.46 64.76 125.5 62.67 127.08 61.38 127.33 61.18 126.97 60.83 126.73 61.03 125.13 62.33 124.08 64.42 123.48 66.36 122.79 68.58 122.73 70.99 122.48 73.29 122.45 73.61 122.95 73.61 122.98 73.29L122.98 73.29Z" fill="#D03127"/><path d="M148.27 75.21C146.9 73.61 145.96 71.69 145.52 69.63 145.45 69.32 144.97 69.45 145.04 69.76 145.5 71.9 146.5 73.89 147.92 75.56 148.13 75.8 148.48 75.45 148.27 75.21L148.27 75.21Z" fill="#D03127"/><path d="M139.48 215.05C141.51 214.9 143.54 215.21 145.44 215.92 147.1 216.54 148.68 217.5 149.66 219.02 149.83 219.29 150.27 219.04 150.09 218.77 149.1 217.23 147.55 216.23 145.87 215.56 143.85 214.76 141.64 214.4 139.47 214.56 139.15 214.58 139.15 215.08 139.47 215.06L139.47 215.06Z" fill="#632C90"/><path d="M109.67 214.89C113.03 214.89 117.18 214.99 119.24 218.14 119.42 218.41 119.85 218.16 119.67 217.89 117.5 214.57 113.24 214.39 109.67 214.39 109.35 214.39 109.35 214.89 109.67 214.89L109.67 214.89Z" fill="#632C90"/></g><g filter="url(#drop-shadow-2)"><path d="M32.25 46.92C32.87 48.3 37.52 58.92 33.7 62.24 32.78 63.04 31.73 63.1 26.96 63.06 13.79 62.95 13.17 62.39 12.87 61.86 11.26 59.02 16.69 53.36 19.63 45.59 19.94 44.77 20.38 43.14 21.01 41.01 21.47 39.48 21.26 39.32 21.71 36.47 22.21 33.32 22.44 31.74 23.09 30.26 23.56 29.19 24.84 26.41 27.8 24.39 28.63 23.82 29.82 23.03 31.57 22.69 34.54 22.12 36.96 23.28 37.85 23.76 38.39 23.54 41.18 22.49 43.94 23.82 45.3 24.48 46.16 25.49 46.51 25.93 46.84 26.35 47.49 27.28 47.88 28.79 48.66 31.76 47.92 35.02 46.89 39.59 46.68 40.5 46.4 41.66 46.97 42.64 47.23 43.09 47.6 43.37 47.75 44.02 47.93 44.82 47.64 45.49 47.6 45.63 46.8 47.86 57.06 58.82 56.02 61.78 55.46 63.38 51.05 64.2 35.79 61.63" fill="#822319"/><path d="M70.23 35.72C70.17 33.81 69.3 32.62 70.12 30.89 70.86 29.32 72.62 28.09 74.62 27.97 76.52 27.86 78.57 28.76 79.57 30.56 80.63 32.48 79.96 34.44 79.79 34.94 78.99 37.28 77.01 38.31 76.59 38.51 74.33 42.9 72.08 47.3 69.82 51.69 69.06 53.49 67.86 55.82 65.94 58.2 63.99 60.62 62.01 63.08 58.58 64.27 55.99 65.17 53.62 64.98 51.31 64.79 49.3 64.63 48 64.29 45.77 63.74 43.42 63.17 40.02 62.37 35.74 61.49 36.61 57.75 37.49 54.01 38.36 50.27 40.13 50.26 42.74 50.41 45.75 51.27 49.37 52.31 50.44 53.49 52.66 53.4 54.19 53.34 55.41 52.71 60.07 48.4 70.1 39.13 70.26 36.72 70.23 35.72Z" fill="#F4D4BB"/><path d="M10.19 65.87C7.85 70.98 3.29 81.98 2.03 94.74 1.35 101.59 1.69 107.73 1.8 108.56 2.29 112.16 2.78 115.76 3.26 119.36 3.21 120.72 3.17 122.08 3.12 123.44 3.08 123.56 3.02 123.74 2.94 123.95 2.64 124.72 2.31 125.23 2.21 125.42 1.69 126.43 1.33 127.55 1.17 128.7 1.07 129.38 1.04 130.09 1.25 130.74 1.63 131.95 2.75 132.68 3.87 132.98 5.4 133.39 7.09 133.14 8.38 132.15 10.2 130.76 10.32 128.4 10.37 127.66 10.58 124.82 9.12 122.81 8.78 122.36 9.55 119.53 9.85 117.34 9.97 115.83 10.03 115.06 10.19 113.37 10.41 110.89 10.48 110.12 10.57 109.52 10.63 109.1 10.99 106.32 11.58 102.16 11.83 100.63 12.69 95.34 14.46 91.57 18.52 77.81 19.22 75.44 20 73.09 20.67 70.7 22.08 65.69 22.8 62.36 23.41 62.42 23.88 62.47 23.45 64.48 24.42 65.91 27.09 69.84 40.09 69 42.03 63.66 43.8 58.79 36.08 50.91 30.38 50.55 29.76 50.51 29.58 50.59 27.34 50.55 22.57 50.48 21.32 50.1 19.32 50.85 17.96 51.36 17.07 52.07 16.55 52.5 15.55 53.31 14.39 54.56 12.88 57.82 12.01 59.7 10.94 62.41 10.2 65.86Z" fill="#F4D4BB"/><rect x="17.63" y="198.38" width="6.91" height="11.15" fill="#F4D4BB"/><rect x="42.69" y="198.06" width="6.91" height="11.15" fill="#F4D4BB"/><path d="M39.77 210.14C39.32 212.14 38.89 214.28 38.49 216.54 38.09 218.8 37.78 220.97 37.53 223.03 38.47 223.3 39.44 223.34 40.4 223.36 47.09 223.5 53.79 222.54 60.46 223.08 60.56 223.08 60.68 223.09 60.75 223 60.81 222.93 60.82 222.81 60.83 222.71 60.89 221.22 60.15 219.85 59.25 218.86 58 217.48 56.43 216.61 54.8 216.15 53.17 215.69 51.49 215.61 49.82 215.68 49.67 214.86 49.53 213.92 49.45 212.87 49.37 211.82 49.35 210.87 49.37 210.02 46.17 210.06 42.97 210.11 39.77 210.15Z" fill="#EE6544"/><path d="M13.92 210.14C13.45 212.14 13.01 214.28 12.61 216.54 12.21 218.8 11.88 220.97 11.62 223.03 12.59 223.3 13.58 223.34 14.57 223.36 21.45 223.5 28.34 222.54 35.21 223.08 35.32 223.08 35.43 223.09 35.51 223 35.57 222.93 35.58 222.81 35.59 222.71 35.65 221.22 34.89 219.85 33.97 218.86 32.69 217.48 31.07 216.61 29.39 216.15 27.71 215.69 25.98 215.61 24.27 215.68 24.11 214.86 23.97 213.92 23.89 212.87 23.8 211.82 23.79 210.87 23.81 210.02 20.52 210.06 17.22 210.11 13.93 210.15Z" fill="#EE6544"/><path d="M18.26 97.91C16.69 99.53 14.39 102.24 12.71 106.07 8.96 114.61 11.81 121.49 12.61 134.17 13.37 146.1 11.85 142.96 12.74 160.54 13.13 168.29 13.96 180.81 13.47 190.15 13.18 195.76 12.23 204 9.12 214.05 16.86 213.7 24.61 213.35 32.35 213 30.35 207.17 27.89 198.26 27.33 187.22 26.9 178.8 27.51 174.46 29.32 160.58 30.3 153.04 30.78 147.27 31.07 143.52 32.19 129.35 31.58 124.12 32.28 124.05 33.77 123.9 37.97 147.61 38.76 171.03 38.97 177.16 38.92 182.56 38.2 188.9 37.11 198.52 34.94 206.35 33.1 211.79 40.84 211.64 48.59 211.49 56.33 211.34 54.38 205.52 52.4 197.75 51.68 188.45 50.85 177.64 52.01 168.5 53.37 161.92 53.67 158.01 53.9 152.65 53.59 146.86 53.37 142.63 52.88 138.63 52.82 138.14 52.6 136.38 52.48 135.8 52.19 133.52 51.8 130.44 51.56 128.08 51.17 124.73 50.48 118.76 49.08 109.9 45.99 97.68 36.75 97.75 27.51 97.82 18.27 97.89Z" fill="#64B1B8"/><path d="M32.04 136.22C32.11 132.78 32.18 129.35 32.25 125.91 32.32 122.47 33.01 119.26 33.57 115.94 33.62 115.63 33.14 115.49 33.09 115.81 32.55 119.03 31.83 122.24 31.76 125.51 31.68 129.08 31.62 132.65 31.55 136.22 31.55 136.54 32.04 136.54 32.05 136.22L32.05 136.22Z" fill="#29266F"/><path d="M24.18 215.43C21.24 215.38 18.33 216.24 15.88 217.87 15.61 218.05 15.86 218.48 16.13 218.3 18.51 216.71 21.32 215.89 24.18 215.93 24.5 215.93 24.5 215.43 24.18 215.43L24.18 215.43Z" fill="#D03127"/><path d="M49.76 215.48C46.82 215.43 43.91 216.29 41.46 217.92 41.19 218.1 41.44 218.53 41.71 218.35 44.09 216.76 46.9 215.94 49.76 215.98 50.08 215.98 50.08 215.48 49.76 215.48L49.76 215.48Z" fill="#D03127"/><path d="M29.94 47.95C29.81 45.67 30.47 45 29.94 43.37 29.52 42.07 28.66 41.17 27.99 40.61 26.56 41.36 24.93 41.22 23.91 40.3 22.62 39.13 22.95 37.28 23.03 36.85 23.29 35.45 24.39 33.33 26.48 33.21 28.07 33.12 29.63 34.21 30.25 35.91 31.13 35.12 32.26 33.85 32.57 32.08 32.92 30.07 31.91 29.1 32.57 28 33.43 26.56 36.06 26.66 38.6 26.74 41.52 26.84 42.98 26.89 44.06 27.87 45.85 29.48 45.62 32.36 45.28 36.44 45.12 38.43 45 39.75 44.24 41.37 43.7 42.53 42.62 44.86 40.03 45.95 37.81 46.89 35.71 46.39 34.88 46.14 35.66 46.61 37.57 47.9 38.33 50.28 38.62 51.2 39.09 52.68 38.27 53.99 37.56 55.11 36.19 55.65 35 55.56 33.41 55.45 32.45 54.24 31.8 53.42 30.14 51.34 29.97 48.85 29.92 47.96Z" fill="#F4D4BB"/><path d="M34.48 35.83C34.48 35.83 34.48 35.85 34.48 35.86L36.98 35.86C36.98 35.86 36.98 35.84 36.98 35.83 36.98 35.8 36.98 35.77 36.98 35.74 36.98 35.57 36.95 35.41 36.87 35.26 36.82 35.11 36.73 34.97 36.61 34.86 36.5 34.74 36.36 34.65 36.21 34.6 36.06 34.52 35.9 34.49 35.73 34.49L35.4 34.53C35.19 34.59 35 34.7 34.85 34.85L34.65 35.1C34.54 35.29 34.48 35.51 34.48 35.73 34.48 35.76 34.48 35.79 34.48 35.82 34.48 35.82 34.48 35.84 34.48 35.85 34.48 36.02 34.51 36.18 34.59 36.33 34.64 36.48 34.73 36.62 34.85 36.73 34.96 36.85 35.1 36.94 35.25 36.99 35.4 37.07 35.56 37.1 35.73 37.1L36.06 37.06C36.27 37 36.46 36.89 36.61 36.74L36.81 36.49C36.92 36.3 36.98 36.08 36.98 35.86 36.98 35.85 36.98 35.84 36.98 35.83 36.98 35.66 36.95 35.5 36.87 35.35 36.82 35.2 36.73 35.06 36.61 34.95 36.5 34.83 36.36 34.74 36.21 34.69 36.06 34.61 35.9 34.58 35.73 34.58L35.4 34.62C35.19 34.68 35 34.79 34.85 34.94L34.65 35.19C34.54 35.38 34.48 35.6 34.48 35.82L34.48 35.82Z" fill="#703639"/><path d="M43.38 32.05C42.7 31.93 42.01 31.9 41.32 31.98 41.16 32 41.03 32.03 40.91 32.15 40.81 32.25 40.74 32.41 40.74 32.56 40.74 32.71 40.8 32.86 40.91 32.97 41.01 33.07 41.17 33.16 41.32 33.14 41.87 33.07 42.43 33.07 42.98 33.14L42.83 33.12C42.92 33.13 43 33.15 43.09 33.16 43.25 33.19 43.39 33.18 43.53 33.1 43.65 33.03 43.76 32.89 43.79 32.76 43.85 32.48 43.71 32.11 43.39 32.05L43.39 32.05Z" fill="#703639"/><path d="M37.92 31.61C36.97 31.44 36.02 31.4 35.06 31.52 34.76 31.56 34.47 31.76 34.48 32.1 34.49 32.38 34.74 32.72 35.06 32.68 35.48 32.63 35.91 32.6 36.34 32.61 36.58 32.61 36.83 32.63 37.07 32.65 37.12 32.65 37.17 32.66 37.22 32.67 37.25 32.67 37.46 32.69 37.31 32.68 37.41 32.68 37.52 32.71 37.62 32.73 37.92 32.78 38.25 32.65 38.33 32.33 38.39 32.05 38.25 31.68 37.93 31.62L37.93 31.62Z" fill="#703639"/><path d="M39.44 36.86 39.62 38.06 39.6 37.89C39.6 37.89 39.6 37.91 39.6 37.93L39.69 37.61 39.69 37.63C39.76 37.56 39.83 37.48 39.91 37.41L39.9 37.41C39.9 37.41 40 37.38 40.05 37.36L40.03 37.36C40.09 37.36 40.14 37.35 40.2 37.34 40.13 37.34 40.07 37.34 40 37.34 39.84 37.34 39.67 37.41 39.56 37.52 39.45 37.63 39.37 37.81 39.38 37.96 39.4 38.3 39.65 38.58 40 38.58 40.06 38.58 40.13 38.58 40.19 38.58 40.49 38.57 40.76 38.39 40.84 38.09 40.88 37.93 40.84 37.77 40.82 37.61L40.79 37.39 40.66 36.53C40.64 36.39 40.49 36.23 40.37 36.16 40.24 36.08 40.04 36.05 39.89 36.1 39.74 36.15 39.59 36.24 39.52 36.39L39.46 36.54C39.43 36.65 39.43 36.76 39.46 36.87L39.46 36.87Z" fill="#703639"/><path d="M28.65 36.79C28.86 35.78 28.15 34.93 27.21 34.65 26.76 34.52 26.23 34.47 25.83 34.75 25.43 35.03 25.25 35.51 25.12 35.99 24.99 36.47 25.72 36.66 25.84 36.19 25.92 35.89 26 35.56 26.23 35.38 26.25 35.36 26.23 35.38 26.27 35.35 26.27 35.35 26.37 35.31 26.33 35.32 26.4 35.3 26.46 35.29 26.53 35.29 26.69 35.29 26.85 35.32 27.01 35.37 27.55 35.53 28.05 35.99 27.93 36.58 27.89 36.78 27.99 36.99 28.19 37.04 28.38 37.09 28.61 36.98 28.65 36.78L28.65 36.78Z" fill="#703639"/><path d="M40.74 40.65C40.66 40.67 40.58 40.69 40.5 40.7 40.5 40.7 40.33 40.72 40.4 40.72 40.46 40.72 40.34 40.72 40.33 40.72 40.16 40.74 39.99 40.74 39.81 40.74 39.73 40.74 39.65 40.74 39.57 40.73 39.53 40.73 39.49 40.73 39.45 40.72 39.56 40.73 39.43 40.72 39.41 40.72 39.24 40.69 39.07 40.65 38.91 40.6 38.83 40.58 38.75 40.55 38.68 40.53 38.64 40.52 38.6 40.5 38.57 40.49 38.53 40.48 38.49 40.46 38.55 40.49 38.39 40.42 38.24 40.34 38.09 40.26 38.01 40.21 37.93 40.17 37.86 40.11 37.83 40.09 37.79 40.06 37.76 40.04 37.73 40.02 37.69 39.99 37.74 40.03 37.6 39.92 37.46 39.79 37.33 39.66 37.09 39.42 36.68 39.42 36.45 39.66 36.22 39.9 36.21 40.3 36.45 40.54 37.64 41.76 39.43 42.26 41.08 41.88 41.4 41.81 41.62 41.42 41.52 41.11 41.41 40.78 41.09 40.59 40.75 40.67L40.75 40.67Z" fill="#703639"/><path d="M41.53 35.83C41.53 35.83 41.53 35.85 41.53 35.86L43.78 35.86C43.78 35.86 43.78 35.84 43.78 35.83 43.78 35.8 43.78 35.77 43.78 35.74 43.78 35.59 43.75 35.44 43.68 35.31 43.63 35.17 43.56 35.05 43.45 34.95 43.35 34.84 43.23 34.76 43.09 34.72 42.96 34.65 42.81 34.62 42.66 34.62L42.36 34.66C42.17 34.71 42 34.81 41.86 34.95L41.68 35.18C41.58 35.36 41.53 35.54 41.53 35.75 41.53 35.78 41.53 35.81 41.53 35.84 41.53 35.84 41.53 35.86 41.53 35.87 41.53 36.02 41.56 36.17 41.63 36.3 41.68 36.44 41.75 36.56 41.86 36.66 41.96 36.77 42.08 36.85 42.22 36.89 42.35 36.96 42.5 36.99 42.65 36.99L42.95 36.95C43.14 36.9 43.31 36.8 43.45 36.66L43.63 36.43C43.73 36.25 43.78 36.07 43.78 35.86 43.78 35.85 43.78 35.84 43.78 35.83 43.78 35.68 43.75 35.53 43.68 35.4 43.63 35.26 43.56 35.14 43.45 35.04 43.35 34.93 43.23 34.85 43.09 34.81 42.96 34.74 42.81 34.71 42.66 34.71L42.36 34.75C42.17 34.8 42 34.9 41.86 35.04L41.68 35.27C41.58 35.45 41.53 35.63 41.53 35.84L41.53 35.84Z" fill="#703639"/><g><path d="M31.62 45.04C32.51 45.59 33.13 45.82 33.55 45.93 33.72 45.97 34.3 46.12 34.76 46.5 34.83 46.56 35.01 46.71 35.01 46.71 35.01 46.71 34.75 46.51 34.76 46.5 34.78 46.48 35.81 47.19 36.7 48.2 36.94 48.48 37.07 48.65 37.01 48.8 36.91 49.05 36.25 49.11 35.74 48.93 35.74 48.93 35.59 48.87 35.46 48.8 34.75 48.37 32.04 45.5 31.6 45.03Z" fill="#703639"/><path d="M31.31 45.58C31.93 45.96 32.58 46.3 33.28 46.51 33.79 46.66 34.17 46.81 34.58 47.17L35.34 46.19C35.41 46.22 35.43 46.27 35.34 46.19 35.26 46.12 35.23 46.02 35.32 46.2L34.78 47.14C34.43 47.19 34.41 46.99 34.53 47.09 34.56 47.12 34.6 47.14 34.64 47.16 34.69 47.2 34.74 47.23 34.79 47.27 34.82 47.29 34.85 47.31 34.88 47.34 34.79 47.27 34.96 47.4 34.95 47.4 35.31 47.69 35.66 48.01 35.98 48.34 36.13 48.5 36.29 48.67 36.41 48.83 36.48 48.92 36.41 48.9 36.43 48.86L36.48 48.65C36.47 48.54 36.5 48.45 36.59 48.4 36.59 48.39 36.74 48.37 36.59 48.4 36.5 48.42 36.59 48.4 36.52 48.42 36.32 48.44 36.16 48.42 35.97 48.36 35.97 48.36 35.87 48.32 35.93 48.35 36.01 48.38 35.85 48.31 35.84 48.3 35.8 48.28 35.76 48.25 35.72 48.22 35.65 48.17 35.64 48.15 35.72 48.22 35.68 48.19 35.64 48.16 35.6 48.13 35.5 48.04 35.4 47.95 35.3 47.86 35.07 47.65 34.85 47.44 34.64 47.23 34.14 46.74 33.65 46.25 33.17 45.75 32.8 45.37 32.44 44.99 32.08 44.6 31.53 44.01 30.65 44.9 31.2 45.48 32.14 46.48 33.09 47.47 34.08 48.42 34.55 48.87 35.04 49.38 35.69 49.57 36.22 49.73 36.97 49.75 37.41 49.35 37.94 48.86 37.59 48.24 37.21 47.8 36.79 47.32 36.32 46.88 35.83 46.48 35.6 46.3 35.14 45.83 34.8 45.88 34.33 45.94 34.02 46.36 34.26 46.82 34.34 46.97 34.58 47.19 34.73 47.26 35.01 47.39 35.34 47.36 35.54 47.1 35.72 46.87 35.73 46.49 35.49 46.28 34.97 45.83 34.43 45.52 33.77 45.34 33.11 45.16 32.58 44.88 31.97 44.5 31.28 44.08 30.65 45.16 31.34 45.58Z" fill="#703639"/></g><path d="M45.77 64.33C46.19 62.41 46.56 59.81 46.44 56.75 46.36 54.67 46.08 52.85 45.75 51.37 44.88 51.13 44.01 50.9 43.15 50.66 43.4 51.58 43.99 54.22 42.96 57.16 42.7 57.92 41.97 59.72 40.34 61.19 38.34 63 35.41 63.06 29.55 63.17 27.89 63.2 26.84 63.15 25.99 62.35 24.87 61.29 24.91 59.67 24.6 57.74 24.31 55.88 23.62 53.33 21.9 50.39 21.49 50.39 20.98 50.43 20.42 50.56 20 50.65 19.63 50.78 19.31 50.91 20.39 54.01 20.9 56.69 21.16 58.61 21.38 60.18 21.99 64.89 21.1 70.38 20.89 71.66 20.64 72.8 20.28 75.36 19.95 77.69 19.9 79.48 19.68 80.53 18.92 84.26 19.09 86.77 18.51 89.75 18.21 91.32 17.88 93 17.2 95.15 15.55 100.38 13.99 101.43 14.56 102.58 15.54 104.57 20.78 102.66 28.85 102.51 40.1 102.3 46.02 105.72 47.77 103.08 48.75 101.61 47.17 100.15 45.71 95.39 43.9 89.49 43.97 83.8 45.01 72.5 45.26 69.77 45.51 67.05 45.76 64.32Z" fill="#DE4073"/><path d="M34.32 25.76C34.28 25.86 34.24 25.96 34.2 26.06L34.45 25.46C34.31 25.79 34.13 26.09 33.91 26.37L34.3 25.86C34.1 26.11 33.87 26.33 33.62 26.53L34.13 26.14C33.84 26.36 33.53 26.54 33.2 26.68L33.8 26.43C32.96 26.78 32.14 27.11 31.38 27.61 30.2 28.4 29.11 29.34 28.1 30.33 27.17 31.25 27.11 32.96 28.1 33.87 29.09 34.78 30.64 34.85 31.64 33.87 32.27 33.25 32.92 32.66 33.61 32.12L33.1 32.51C33.77 31.99 34.48 31.52 35.26 31.19L34.66 31.44C35.04 31.28 35.42 31.14 35.79 30.97 36.3 30.74 36.73 30.41 37.16 30.06 38.12 29.28 38.72 28.21 39.14 27.07 39.35 26.49 39.19 25.66 38.89 25.14 38.59 24.62 37.99 24.13 37.4 23.99 36.76 23.84 36.04 23.88 35.47 24.24 34.9 24.6 34.55 25.09 34.32 25.73L34.32 25.73Z" fill="#822319"/><path d="M38.5 26.83C38.98 28.45 39.85 29.87 40.99 31.11 41.4 31.55 41.84 31.96 42.29 32.35 43.06 33.01 43.98 33.74 45.02 33.89 45.35 33.99 45.68 34.01 46.02 33.93 46.35 33.91 46.66 33.82 46.95 33.63 47.47 33.33 47.96 32.73 48.1 32.14 48.25 31.5 48.21 30.78 47.85 30.21 47.52 29.7 46.98 29.15 46.36 29.06 46.19 29.04 46.04 28.99 45.88 28.93L46.48 29.18C46.18 29.05 45.91 28.87 45.65 28.68L46.16 29.07C45.35 28.43 44.59 27.69 43.96 26.87L44.35 27.38C43.95 26.85 43.61 26.28 43.35 25.66L43.6 26.26C43.5 26.01 43.41 25.75 43.33 25.49 43.15 24.88 42.73 24.32 42.18 24 41.63 23.68 40.85 23.55 40.25 23.75 39.65 23.95 39.06 24.32 38.76 24.9 38.46 25.48 38.31 26.17 38.51 26.83L38.51 26.83Z" fill="#822319"/></g><g><g><path d="M71.75 22.35C69.16 21.69 67.31 22.2 66.46 22.51 64.66 23.17 62.5 24.7 62.75 25.54 62.82 25.77 63.04 25.9 63.23 25.98L66.64 23.17 71.76 22.35Z" fill="#2C140B"/><path d="M93.35 39.46C93.59 39.43 94.44 39.3 95.69 37.41 96.12 36.76 96.62 36 97.01 34.78 98.27 30.79 96.62 27.12 96.62 27.12 96.29 26.38 95.11 23.88 92.31 22.36 91.32 21.83 88.86 20.49 86.37 21.51 85.27 21.96 84.55 22.71 84.16 23.2 84.18 22.97 84.28 20.99 82.78 19.76 81.57 18.76 80.12 18.9 79.57 18.96 78.17 19.1 77.18 19.81 76.75 20.14 76.31 20.47 75.98 20.81 75.76 21.06 75.63 20.82 75.19 20.13 74.32 19.79 73.17 19.34 72.13 19.87 71.9 19.99 70.68 20.62 70.27 21.84 70.06 22.46 69.51 24.11 69.97 25.51 70.17 26.06 70.41 26.75 70.69 27.55 71.49 27.96 71.66 28.05 72.19 28.29 72.83 28.15 73.76 27.95 74.25 27.08 74.69 26.31 75.04 25.7 75.22 25.13 75.32 24.69 75.49 25.04 75.81 25.59 76.37 26.09 77.24 26.87 78.17 27.1 78.71 27.22 79.31 27.36 80.35 27.6 81.56 27.17 82.62 26.8 83.28 26.12 83.59 25.75 83.63 26.26 83.74 27.04 84.14 27.88 84.66 28.97 85.28 29.34 86.53 30.67 86.67 30.82 87.78 32 88.85 33.51 89.88 34.95 90.4 35.68 90.93 36.83 91.49 38.04 91.83 39.18 92.77 39.42 93.01 39.48 93.21 39.46 93.34 39.45Z" fill="#F6C93C"/><path d="M91.75 1.47C92.78 2.05 92.71 3.97 92.63 6.01 92.55 7.89 92.49 9.48 91.45 10.92 91.01 11.52 90.8 11.56 87.15 13.77 87.15 13.77 85.5 14.76 82.71 16.81 82.18 17.2 81.22 17.91 80.65 19.19 80.45 19.64 80.35 20.04 80.29 20.31L77.56 20.09C78.09 17.72 78.79 15.74 79.45 14.19 80.78 11.06 82.27 8.86 83.03 7.8 84.1 6.32 85.22 4.79 87.18 3.33 88.57 2.3 90.56 0.81 91.76 1.48Z" fill="#FFFFFF" opacity="0.4"/><path d="M87.88 0.07C89 0.47 89.24 2.38 89.5 4.4 89.74 6.27 89.94 7.85 89.16 9.44 88.83 10.11 88.62 10.18 85.39 12.96 85.39 12.96 83.93 14.21 81.51 16.69 81.05 17.16 80.23 18.03 79.87 19.38 79.74 19.86 79.71 20.27 79.7 20.55L76.97 20.79C77.1 18.37 77.46 16.3 77.85 14.65 78.64 11.34 79.74 8.93 80.32 7.76 81.13 6.12 81.98 4.42 83.67 2.66 84.87 1.41 86.59-0.39 87.87 0.08Z" fill="#FFFFFF" opacity="0.6"/><path d="M94.49 24.02C94.2 23.64 93.77 23.17 93.17 22.73 92.12 21.96 91.07 21.68 90.45 21.57 89.59 21.83 88.04 22.45 86.93 23.93 86.2 24.9 85.92 25.91 85.7 26.68 85.38 27.82 85.3 28.82 85.29 29.51L87.48 32.07C87.37 31.25 87.27 29.55 88.24 27.93 89.09 26.51 90.36 25.82 91.59 25.15 92.73 24.53 93.76 24.2 94.48 24.02Z" fill="url(#linear-gradient)"/><path d="M72.93 22.12C73.56 22.18 73.98 22.8 74.13 23.26 74.33 23.89 74.09 24.44 73.9 24.88 73.85 24.99 73.12 26.61 72.3 26.47 71.73 26.38 71.46 25.48 71.35 25.14 71.26 24.85 71.05 24.14 71.38 23.38 71.41 23.31 71.98 22.04 72.93 22.12Z" fill="url(#linear-gradient-2)"/><path d="M72.01 21.99C71.96 21.9 71.92 21.8 71.87 21.71 71.34 21.57 70.55 21.37 69.59 21.14 68.21 20.81 67.53 20.64 67.29 20.62 65.16 20.46 62.88 21.69 62.93 22.53 62.93 22.64 62.99 22.78 63.15 22.93L67.26 21.3C68.85 21.53 70.43 21.76 72.02 21.99Z" fill="#2C140B"/><path d="M97.15 28.8C97.37 29.51 97.6 30.6 97.55 31.93 97.51 33.13 97.24 34.11 97.01 34.78 96.81 34.67 95.07 33.71 93.17 34.54 91.65 35.2 91.06 36.54 90.94 36.84L89.24 34.15C89.28 33.72 89.56 31.46 91.56 29.88 93.98 27.97 96.85 28.72 97.15 28.8Z" fill="url(#linear-gradient-3)"/><path d="M95.7 37.41C94.96 38.98 93.66 39.73 92.79 39.43 92.64 39.38 92.24 39.21 91.92 38.57 92.25 38.3 92.83 37.88 93.65 37.62 94.52 37.34 95.27 37.36 95.71 37.4Z" fill="url(#linear-gradient-4)"/></g><path d="M88.5 33.04C87.71 34.92 86.7 36.18 85.99 36.93 85.17 37.79 84.22 38.77 83.08 38.63 82.78 38.59 82.27 38.45 82.22 38.19 82.14 37.68 83.91 37.3 85.39 36.21 86.25 35.57 87.3 34.47 88.05 32.47" fill="#2C140B"/><path d="M88.26 30.14C87.39 32.2 86.29 33.58 85.51 34.4 84.62 35.34 83.57 36.41 82.32 36.26 81.99 36.22 81.43 36.06 81.38 35.77 81.29 35.21 83.24 34.8 84.85 33.6 85.8 32.9 86.94 31.7 87.76 29.5" fill="#2C140B"/><path d="M78.24 26.4C77.32 28.44 77.06 30.18 76.99 31.31 76.91 32.61 76.83 34.1 77.8 34.91 78.06 35.12 78.55 35.43 78.79 35.26 79.26 34.94 78.24 33.24 78.02 31.24 77.89 30.07 78 28.42 79.04 26.32" fill="#2C140B"/><path d="M79.86 27.39C79.25 29.04 79.21 30.51 79.28 31.48 79.35 32.59 79.45 33.87 80.42 34.67 80.68 34.88 81.16 35.2 81.36 35.09 81.75 34.87 80.63 33.29 80.21 31.54 79.96 30.52 79.87 29.11 80.59 27.42" fill="#2C140B"/><path d="M86.45 28.72C85.78 29.75 84.86 30.41 84.19 30.8 83.43 31.24 82.54 31.75 81.4 31.6 81.1 31.56 80.58 31.45 80.52 31.29 80.41 30.99 82.15 30.88 83.55 30.35 84.37 30.03 85.34 29.47 85.96 28.36" fill="#2C140B"/><path d="M84.67 28.76C83.95 29.5 83.18 29.89 82.65 30.09 82.05 30.33 81.34 30.6 80.67 30.29 80.49 30.21 80.2 30.03 80.21 29.9 80.23 29.64 81.35 29.83 82.38 29.62 82.98 29.49 83.75 29.19 84.47 28.39" fill="#2C140B"/></g></svg>