<svg viewBox="0 0 233.76 190.93" xmlns="http://www.w3.org/2000/svg" xmlns:xlink="http://www.w3.org/1999/xlink" id="Layer_1" overflow="hidden"><defs><filter id="drop-shadow-1" x="-10%" y="-10%" width="120%" height="120%" filterUnits="userSpaceOnUse" primitiveUnits="userSpaceOnUse"><feOffset dx="2" dy="0"/><feGaussianBlur result="blur" stdDeviation="1 1"/><feFlood flood-opacity="0.23"/><feComposite in2="blur" operator="in" k1="0" k2="0" k3="0" k4="0"/><feComposite in="SourceGraphic" operator="over" k1="0" k2="0" k3="0" k4="0"/></filter><filter id="drop-shadow-2" x="-10%" y="-10%" width="120%" height="120%" filterUnits="userSpaceOnUse" primitiveUnits="userSpaceOnUse"><feOffset dx="2" dy="0"/><feGaussianBlur result="blur-2" stdDeviation="1 1"/><feFlood flood-opacity="0.23"/><feComposite in2="blur-2" operator="in" k1="0" k2="0" k3="0" k4="0"/><feComposite in="SourceGraphic" operator="over" k1="0" k2="0" k3="0" k4="0"/></filter><filter id="luminosity-invert" color-interpolation-filters="sRGB" x="-10%" y="-10%" width="120%" height="120%" filterUnits="userSpaceOnUse" primitiveUnits="userSpaceOnUse"><feColorMatrix type="matrix" values="-1 0 0 0 1 0 -1 0 0 1 0 0 -1 0 1 0 0 0 1 0 "/></filter><mask maskUnits="userSpaceOnUse" x="61.91" y="137.41" width="4.51" height="11.5" id="mask"><g filter="url(#luminosity-invert)"><g filter="url(#luminosity-noclip)"><path d="M62.92 148.91 66.41 140.62C66.51 138.94 65.84 137.66 64.96 137.44 64.4 137.3 63.84 137.63 63.68 137.72 63.04 138.09 62.62 138.73 62.28 139.85 62.08 140.52 61.63 142.3 62.16 145.65 62.29 146.46 62.51 147.58 62.92 148.9Z" fill="#FFFFFF"/></g></g></mask></defs><path d="M95.71 155.68C94.56 152.08 94.84 148.04 96.49 144.64 94.91 146.64 93.8 148.96 92.7 151.26 91.77 147.41 90.23 144.82 89.02 143.19 87.76 141.5 86.12 139.85 85.86 140.03 85.62 140.21 86.83 141.85 87.59 144.04 88.59 146.9 88.45 149.62 88.1 151.66 86.47 150.03 84.68 148.32 82.4 147.95 82.86 148.28 84.92 149.85 85.35 152.66 85.6 154.25 85.21 155.55 84.96 156.21" fill="#D85D89"/><path d="M136.96 128.53C137.06 125.82 136.07 123.09 134.27 121.06 135.75 122.13 136.97 123.52 138.18 124.89 137.75 120.94 138.83 116.85 141.15 113.63 140.11 115.13 140.02 117.11 140.3 118.91 140.58 120.71 141.19 122.46 141.44 124.27 142.25 122.83 143.15 121.3 144.65 120.6 143.45 123.52 143.98 127.08 145.98 129.52" fill="#D85D89"/><path d="M207.55 138.16C207.66 134.88 206.48 131.58 204.3 129.13 206.09 130.43 207.56 132.1 209.02 133.77 208.5 129 209.8 124.05 212.61 120.16 211.36 121.98 211.25 124.36 211.59 126.54 211.93 128.72 212.67 130.83 212.96 133.02 213.94 131.28 215.03 129.43 216.84 128.59 215.38 132.12 216.03 136.42 218.45 139.37" fill="#D85D89"/><path d="M3.75 141.97C3.88 138.19 2.51 134.38 0 131.55 2.06 133.05 3.76 134.98 5.44 136.9 4.84 131.4 6.34 125.69 9.58 121.2 8.13 123.3 8.01 126.04 8.4 128.56 8.79 131.08 9.65 133.51 9.98 136.03 11.11 134.02 12.37 131.89 14.46 130.92 12.78 134.99 13.52 139.95 16.32 143.35" fill="#D85D89"/><g filter="url(#drop-shadow-1)"><g><rect x="172.63" y="163.24" width="7.43" height="10.46" fill="#CC9668" transform="matrix(-0.772512 -0.635 0.635 -0.772512 205.59 410.6)"/><g><path d="M182.08 172.8C178.91 169.65 175.74 166.49 172.57 163.34 178.57 157.89 184.56 152.43 190.56 146.98 194.57 150.4 198.59 153.82 202.6 157.24 202.42 157.51 200.61 160.12 197.63 160.25 195.8 160.33 194.52 159.43 194.08 159.09 190.08 163.66 186.08 168.23 182.07 172.8Z" fill="#97479B"/><path d="M191.23 158.1C190.05 157.54 189.03 156.68 188.2 155.64 187.39 154.63 186.76 153.4 186.77 152.04" fill="#97479B"/></g><path d="M170.97 182.27 178.47 173.51 172.87 169.15" fill="#7E9ECD"/><path d="M167.94 97.44C168.18 102.54 166.71 116.8 165.3 121.08 163.92 125.24 162.17 128.49 160.75 130.77 159.08 133.05 157.4 135.33 155.73 137.62 155.3 138.58 154.88 139.55 154.45 140.51 154.45 140.61 154.44 140.76 154.45 140.94 154.45 141.61 154.58 142.11 154.6 142.28 154.72 143.21 154.65 144.15 154.4 145.02 154.25 145.53 154.03 146.04 153.62 146.4 152.86 147.07 151.61 147.08 150.51 146.8 149.01 146.41 147.58 145.49 146.77 144.23 145.62 142.46 146.33 140.77 146.54 140.24 147.33 138.18 149.32 137.43 149.78 137.27 150.06 134.96 150.55 133.32 150.97 132.21 151.18 131.65 151.62 130.41 152.27 128.59 152.47 128.02 152.6 127.57 152.69 127.25 153.33 125.17 154.23 122.02 154.54 120.84 155.17 118.41 156.03 106.22 156.42 102.05 156.65 99.58 156.83 97.54 156.95 96.17" fill="#AD7038"/><rect x="199.74" y="161.8" width="7.43" height="11.74" fill="#CC9668" transform="matrix(-0.772512 -0.635 0.635 -0.772512 254.15 426.38)"/><g><path d="M209.57 169.87C205.69 167.68 201.82 165.49 197.94 163.31 204.12 157.49 210.3 151.67 216.48 145.85 220.49 149.27 224.51 152.69 228.52 156.11 228.34 156.38 226.53 158.99 223.55 159.12 221.72 159.2 220.44 158.3 220 157.96 216.52 161.93 213.04 165.9 209.57 169.87Z" fill="#97479B"/><path d="M220.78 157.86C219.63 157.3 218.64 156.48 217.83 155.48 217.02 154.48 216.45 153.31 216.44 152.02 216.44 151.7 215.94 151.7 215.94 152.02 215.94 153.38 216.54 154.62 217.36 155.68 218.18 156.74 219.28 157.68 220.53 158.29 220.82 158.43 221.07 158 220.78 157.86L220.78 157.86Z" fill="#77327C"/></g><path d="M196.86 132.99C196.89 149.7 196.93 166.4 196.96 183.11 195.12 183.93 191.83 185.1 187.59 185.11 182.84 185.11 179.23 183.66 177.37 182.75 176.84 172.95 176.3 163.14 175.77 153.34 174.17 162.98 172.57 172.63 170.98 182.27 168.81 182.61 165.3 182.89 161.13 181.98 156.76 181.03 153.57 179.19 151.73 177.93 155.52 162.71 159.3 147.5 163.09 132.28L196.87 133Z" fill="#7E9ECD"/><path d="M171.24 182.34C171.94 178.73 172.64 175.12 173.34 171.52 173.4 171.21 172.92 171.07 172.86 171.39 172.16 175 171.46 178.61 170.76 182.21 170.7 182.52 171.18 182.66 171.24 182.34L171.24 182.34Z" fill="#29266F"/><path d="M156.53 95.7C156.82 93.66 157.98 87.3 163.3 83.34 165.76 81.51 168.28 80.8 169.22 80.55 173.19 79.48 174.44 80.58 181.03 80.34 184.84 80.2 186.12 79.37 189.7 79.59 191.92 79.73 193.48 80.11 194.79 80.44 197.32 81.07 198.2 81.63 198.47 81.8 199.87 82.72 200.64 83.84 201.2 84.67 201.55 85.18 201.94 85.84 203.11 88.76 203.66 90.14 204.14 91.39 204.54 92.47 200.51 94.68 196.47 96.89 192.44 99.09 196.02 104.32 198.24 110.48 198.83 116.79 198.91 117.67 198.96 118.58 198.73 119.44 198.52 120.21 198.2 120.78 198 121.09 197.92 121.21 197.87 121.29 197.86 121.3 197.51 121.81 197.16 125.09 196.86 132.98 189.07 135.77 182.86 136.11 179.34 136.06 177.5 136.03 178.72 135.93 171.52 135.35 165.87 134.89 163.41 134.81 162.49 133.14 162.08 132.4 162.1 131.57 162.15 129.93 162.21 127.74 162.75 126.12 162.88 125.7 163.79 122.83 163.14 121.52 163.73 110.82 163.97 106.43 164.19 104.61 163.56 101.63 163.18 99.82 162.64 98.38 162.24 97.42 160.4 97.4 158.56 97.38 156.72 97.37" fill="#4D7040"/><g><path d="M169.46 65.5C167.27 64.75 165.74 62.74 165.08 60.59 164.87 59.89 164.73 59.15 164.89 58.43 164.99 57.98 165.21 57.56 165.34 57.12 165.64 56.14 165.52 55.09 165.44 54.07 165.32 52.45 165.31 50.79 165.77 49.23 166.23 47.67 167.23 46.19 168.71 45.43 169.56 44.99 170.52 44.8 171.48 44.74 173.17 44.62 174.88 44.88 176.45 45.47 177.05 45.7 177.64 45.98 178.26 46.13 178.73 46.25 179.22 46.29 179.7 46.35 181.85 46.59 183.98 47.01 186.05 47.59 187.05 47.87 188.08 48.21 188.84 48.89 189.91 49.84 190.19 51.1 190.4 52.26 191.13 56.21 191.5 58.18 190.86 60.96 189.81 65.53 187.02 68.35 185.87 69.39" fill="#4B2911"/><path d="M170.12 63.09C168.8 62.59 167.89 61.23 167.49 59.93 167.17 58.89 167.71 58.18 167.89 57.15 168.09 55.96 167.99 54.83 167.92 53.63 167.81 51.79 167.79 49.67 169.13 48.23 170.34 46.91 172.67 47.06 174.26 47.42 175.23 47.64 176.12 48.05 177.06 48.38 178.11 48.74 179.22 48.78 180.3 48.93 182.33 49.21 184.7 49.53 186.58 50.39 188.14 51.1 188.11 53.42 188.36 54.88 188.61 56.34 188.81 58.01 188.65 59.33 188.25 62.63 186.45 65.49 184.12 67.63 181.79 69.77 185.29 73.34 187.66 71.17 190.64 68.44 192.83 64.67 193.48 60.66 193.86 58.32 193.62 56.08 193.22 53.75 192.75 50.98 192.3 48.21 189.82 46.49 187.59 44.95 184.37 44.52 181.75 44.12 180.55 43.94 179.34 43.9 178.2 43.49 176.72 42.96 175.36 42.49 173.79 42.31 170.93 41.98 167.85 42.49 165.72 44.56 163.59 46.63 162.89 49.5 162.88 52.3 162.88 53.85 163.26 55.4 162.78 56.9 162.27 58.5 162.22 59.99 162.78 61.6 163.81 64.55 165.85 66.81 168.79 67.92 170.05 68.4 171.53 67.39 171.87 66.17 172.26 64.77 171.39 63.57 170.12 63.09L170.12 63.09Z" fill="#4B2911"/></g><g><path d="M179.66 72.77 171.41 72.77C170.12 72.25 168.2 71.22 167.11 69.22 166.18 67.52 166.34 66.03 166.43 62.19 166.47 60.37 166.5 57.63 166.43 54.21 169.08 54.75 171.11 54.53 172.5 54.21 175.14 53.6 176.63 52.37 178.37 53.12 179.68 53.69 180.28 55.02 180.35 55.17 181.05 56.78 180.16 57.86 180.67 59.72 180.99 60.89 181.7 61.73 182.26 62.26 181.98 60.58 182.87 58.94 184.37 58.3 185.73 57.72 187.35 58.07 188.39 59.19 188.8 59.47 189.76 60.2 189.89 61.3 190.09 62.92 188.46 64.88 185.73 65.39 185.02 68.13 184.32 71.87 184.55 75.52 184.67 77.38 185 78.82 186.08 79.46 186.63 79.78 187.22 79.81 187.63 79.78 186.41 83.71 182.85 86.47 178.76 86.67 174.61 86.87 170.76 84.4 169.21 80.53 170.2 80.29 173.03 79.45 175.13 76.74 176.3 75.23 176.8 73.71 177.02 72.75" fill="#AD7038"/><path d="M174.8 61.93C174.8 61.93 174.8 61.95 174.8 61.97 174.8 62.14 174.83 62.3 174.91 62.45 174.96 62.6 175.05 62.74 175.17 62.85 175.28 62.97 175.42 63.06 175.57 63.11 175.72 63.19 175.88 63.22 176.05 63.22L176.38 63.18C176.59 63.12 176.78 63.01 176.93 62.86L177.13 62.61C177.24 62.42 177.3 62.2 177.3 61.98 177.3 61.94 177.3 61.89 177.3 61.85 177.3 61.68 177.27 61.52 177.19 61.37 177.14 61.22 177.05 61.08 176.93 60.97 176.82 60.85 176.68 60.76 176.53 60.71 176.38 60.63 176.22 60.6 176.05 60.6L175.72 60.64C175.51 60.7 175.32 60.81 175.17 60.96L174.97 61.21C174.86 61.4 174.8 61.62 174.8 61.84 174.8 61.88 174.8 61.93 174.8 61.97L177.3 61.97C177.3 61.97 177.3 61.95 177.3 61.93 177.3 61.76 177.27 61.6 177.19 61.45 177.14 61.3 177.05 61.16 176.93 61.05 176.82 60.93 176.68 60.84 176.53 60.79 176.38 60.71 176.22 60.68 176.05 60.68L175.72 60.72C175.51 60.78 175.32 60.89 175.17 61.04L174.97 61.29C174.86 61.48 174.8 61.7 174.8 61.92L174.8 61.92Z" fill="#703639"/><path d="M168.06 58.98C168.14 58.97 168.22 58.96 168.3 58.94 168.12 58.97 168.3 58.94 168.33 58.94 168.36 58.94 168.41 58.94 168.44 58.93 168.63 58.91 168.81 58.9 169 58.9 169.33 58.9 169.65 58.91 169.98 58.95 170.12 58.97 170.29 58.87 170.39 58.78 170.49 58.68 170.56 58.52 170.56 58.37 170.56 58.22 170.5 58.07 170.39 57.96 170.27 57.85 170.14 57.81 169.98 57.79 169.24 57.7 168.49 57.73 167.75 57.86 167.62 57.88 167.47 58.01 167.41 58.12 167.34 58.24 167.31 58.42 167.35 58.56 167.45 58.88 167.74 59.02 168.06 58.96L168.06 58.96Z" fill="#703639"/><path d="M174 58.51C174.11 58.49 174.23 58.47 174.34 58.46 174.2 58.48 174.42 58.46 174.45 58.45 174.5 58.45 174.56 58.44 174.61 58.43 174.87 58.4 175.14 58.39 175.4 58.39 175.86 58.39 176.33 58.41 176.79 58.47 177.09 58.51 177.38 58.18 177.37 57.89 177.35 57.55 177.12 57.36 176.79 57.31 175.76 57.18 174.72 57.22 173.7 57.4 173.4 57.45 173.21 57.83 173.3 58.11 173.4 58.43 173.69 58.57 174.01 58.51L174.01 58.51Z" fill="#703639"/><path d="M170.76 62.7 170.62 63.64C170.59 63.85 170.52 64.08 170.55 64.3 170.57 64.47 170.66 64.62 170.79 64.73 170.91 64.83 171.05 64.87 171.2 64.88 171.27 64.88 171.34 64.88 171.42 64.88 171.58 64.88 171.75 64.81 171.86 64.7 171.97 64.59 172.05 64.41 172.04 64.26 172.03 64.11 171.98 63.93 171.86 63.82 171.74 63.71 171.59 63.64 171.42 63.64 171.35 63.64 171.28 63.64 171.2 63.64L171.37 63.66 171.35 63.66C171.35 63.66 171.45 63.7 171.5 63.72L171.48 63.72C171.55 63.78 171.63 63.86 171.7 63.93L171.7 63.91C171.72 64.02 171.75 64.12 171.78 64.23 171.78 64.22 171.78 64.2 171.78 64.19L171.76 64.36 171.96 63.06C171.99 62.98 171.99 62.89 171.97 62.81 171.97 62.73 171.94 62.65 171.9 62.58 171.82 62.45 171.68 62.33 171.53 62.29 171.37 62.25 171.19 62.26 171.05 62.35 170.92 62.43 170.79 62.57 170.76 62.72L170.76 62.72Z" fill="#703639"/><path d="M184.5 62.77C184.36 62.1 184.93 61.58 185.52 61.41 185.79 61.33 186.16 61.26 186.38 61.41 186.66 61.61 186.75 62 186.83 62.32 186.96 62.79 187.68 62.59 187.55 62.12 187.41 61.61 187.24 61.11 186.79 60.79 186.34 60.47 185.79 60.55 185.32 60.68 184.32 60.97 183.55 61.88 183.77 62.96 183.81 63.16 184.04 63.27 184.23 63.22 184.44 63.16 184.53 62.96 184.49 62.76L184.49 62.76Z" fill="#703639"/><path d="M170.26 68.43C172.03 68.84 173.96 68.3 175.24 66.99 175.48 66.75 175.48 66.35 175.24 66.11 175 65.87 174.59 65.87 174.36 66.11 174.08 66.4 173.89 66.55 173.56 66.75 173.4 66.85 173.23 66.93 173.06 67.01 172.96 67.05 173.13 66.98 173.03 67.02 172.99 67.04 172.95 67.05 172.91 67.07 172.82 67.1 172.72 67.13 172.63 67.16 172.24 67.27 172.01 67.31 171.66 67.32 171.24 67.34 170.98 67.31 170.61 67.22 170.28 67.14 169.93 67.32 169.84 67.66 169.75 67.98 169.95 68.35 170.28 68.43L170.28 68.43Z" fill="#703639"/><path d="M167.4 61.93C167.4 61.93 167.4 61.95 167.4 61.97 167.4 62.12 167.43 62.27 167.5 62.4 167.55 62.54 167.62 62.66 167.73 62.76 167.83 62.87 167.95 62.95 168.09 62.99 168.22 63.06 168.37 63.09 168.52 63.09L168.82 63.05C169.01 63 169.18 62.9 169.32 62.76L169.5 62.53C169.6 62.35 169.65 62.17 169.65 61.96 169.65 61.92 169.65 61.87 169.65 61.83 169.65 61.68 169.62 61.53 169.55 61.4 169.5 61.26 169.43 61.14 169.32 61.04 169.22 60.93 169.1 60.85 168.96 60.81 168.83 60.74 168.68 60.71 168.53 60.71L168.23 60.75C168.04 60.8 167.87 60.9 167.73 61.04L167.55 61.27C167.45 61.45 167.4 61.63 167.4 61.84 167.4 61.88 167.4 61.93 167.4 61.97L169.65 61.97C169.65 61.97 169.65 61.95 169.65 61.93 169.65 61.78 169.62 61.63 169.55 61.5 169.5 61.36 169.43 61.24 169.32 61.14 169.22 61.03 169.1 60.95 168.96 60.91 168.83 60.84 168.68 60.81 168.53 60.81L168.23 60.85C168.04 60.9 167.87 61 167.73 61.14L167.55 61.37C167.45 61.55 167.4 61.73 167.4 61.94L167.4 61.94Z" fill="#703639"/></g><path d="M183.29 128.11C180.94 128.3 179.85 126.83 178.05 127.62 175.56 128.71 174.97 132.08 174.89 132.56 174.51 134.91 175.18 137.96 177.56 139.77 178.06 140.15 180.5 142.01 183.29 140.96 185.18 140.25 186.54 138.46 186.85 136.32 191.33 134.05 195.81 131.78 200.28 129.5 204.27 126.81 206.48 123.88 207.63 122.07 209.12 119.72 209.46 118.23 209.59 117.45 209.93 115.42 209.54 113.93 209.01 111.67 207.23 104.06 211.6 120.88 207.13 102.86 206.03 98.43 205.14 94.86 204.53 92.46 200.2 94.77 195.87 97.08 191.53 99.39 192.85 101.05 194.67 103.71 196.01 107.33 197.21 110.59 197.97 112.66 197.45 115.13 197.06 116.98 194.44 119.42 189.22 124.23 186.03 127.17 184.91 127.97 183.28 128.1Z" fill="#BD8049"/><path d="M197.1 182.93C200.31 179.69 203.52 176.45 206.72 173.2 203.47 171.63 200.21 170.06 196.96 168.49" fill="#7E9ECD"/><path d="M197.39 182.92C197.58 178.91 197.77 174.9 197.95 170.89 197.97 170.57 197.47 170.57 197.45 170.89 197.26 174.9 197.07 178.91 196.89 182.92 196.87 183.24 197.37 183.24 197.39 182.92L197.39 182.92Z" fill="#29266F"/></g><g><path d="M136.95 159.4C140.51 160.93 144.06 162.46 147.62 163.99 146.34 167.27 145.18 169.94 144.28 171.94 143.77 173.06 143.25 174.18 142.19 175.29 140.98 176.57 139.76 177.11 138.72 177.58 136.95 178.37 136.12 178.23 135.75 178.13 135.39 178.03 135.14 177.88 135.04 177.82 134.25 177.33 133.87 176.52 133.51 175.52 132.74 173.39 132.36 172.32 132.43 170.89 132.49 169.55 132.87 168.54 133.4 167.24 134.21 165.24 135.37 162.58 136.97 159.41Z" fill="#9ACACC"/><path d="M141.41 161.51 146.25 149.42 148.34 150.24 143.48 162.32 141.41 161.51Z" fill="#AAAAAA"/><path d="M141.22 161.13 143.79 162.23 139.13 173.06C138.23 174.18 137.35 174.86 136.93 174.64 136.66 174.5 136.59 174 136.51 173.4 136.44 172.86 136.47 172.4 136.51 172.08 138.08 168.42 139.65 164.77 141.22 161.11Z" fill="#64B1B8"/><path d="M148.21 150.74 146.05 149.91 145.92 149.6 147.18 146.3C146.98 146.08 146.71 145.75 146.44 145.32 145.94 144.5 145.75 143.77 145.62 143.26 145.5 142.78 145.42 142.46 145.41 141.99 145.4 141.34 145.54 140.83 145.67 140.39 145.8 139.93 145.97 139.52 146.13 139.18L146.78 139.43C146.6 139.82 146.38 140.39 146.29 141.13 146.18 142 146.29 142.66 146.31 142.81 146.44 143.57 146.72 144.09 146.95 144.56 146.95 144.56 147.27 145.18 147.83 145.84 147.95 145.98 148.13 146.17 148.4 146.32 148.49 146.37 148.64 146.44 148.83 146.49 149.14 146.56 149.39 146.54 149.58 146.51 150.44 146.4 151.09 146.15 151.09 146.15 151.58 145.97 152.13 145.76 152.74 145.28 152.86 145.19 153.38 144.77 153.88 144.05 154.3 143.44 154.52 142.87 154.64 142.46L155.29 142.71C155.18 143.08 155.04 143.49 154.83 143.92 154.63 144.34 154.39 144.81 153.95 145.28 153.63 145.62 153.36 145.81 152.95 146.09 152.52 146.38 151.89 146.8 150.97 147.08 150.49 147.22 150.07 147.29 149.77 147.31L148.51 150.61 148.21 150.76 146.05 149.93" fill="#7D7D7D"/><path d="M147.04 139.18C146.94 139.31 146.81 139.5 146.71 139.76 146.62 140.01 146.59 140.22 146.58 140.38 149.1 141.36 151.62 142.34 154.13 143.32 154.24 143.17 154.39 142.95 154.49 142.65 154.56 142.43 154.59 142.23 154.6 142.08L147.03 139.18Z" fill="#64B1B8"/></g></g><g><path d="M116.57 159.66C116.55 158.01 116.46 156.35 116.33 154.7 116.25 153.77 116.16 152.84 115.87 151.95 115.35 150.35 114.25 149.01 113.13 147.75 112.63 147.18 112.11 146.61 111.79 145.93 111.57 145.47 111.45 144.94 111.61 144.46 111.84 143.76 112.62 143.38 113.35 143.33 113.99 143.29 114.68 143.49 115.06 144.01 115.1 144.07 115.15 144.14 115.22 144.17 115.3 144.2 115.38 144.17 115.46 144.17 115.98 144.06 116.5 144.26 116.99 144.46 117.65 144.72 118.32 145 118.82 145.5 119.13 145.81 119.36 146.19 119.58 146.56 120.02 147.31 120.47 148.07 120.71 148.91 120.95 149.75 120.99 150.67 120.63 151.46 120.54 151.67 120.41 151.87 120.23 152.01 119.73 152.39 118.98 152.15 118.54 151.7 118.1 151.25 117.88 150.64 117.56 150.11 117.08 149.31 116.38 148.66 115.78 147.94 115.18 147.22 114.64 146.39 114.58 145.45 114.57 145.27 114.58 145.08 114.5 144.92 114.44 144.79 114.33 144.69 114.21 144.6 113.99 144.43 113.71 144.29 113.43 144.34 113.16 144.39 112.95 144.63 112.86 144.9 112.77 145.17 112.79 145.45 112.84 145.73 112.89 146.02 112.98 146.32 113.15 146.56 113.36 146.85 113.68 147.03 113.97 147.23 114.4 147.54 114.78 147.91 115.16 148.28 115.53 148.65 115.91 149.02 116.22 149.44 117.07 150.58 117.39 152.02 117.62 153.43 117.81 154.61 117.95 155.8 118.04 156.99 118.1 157.76 118.13 158.55 117.96 159.31 117.93 159.43 117.9 159.55 117.82 159.64 117.55 159.95 117.04 159.67 116.63 159.74" fill="#96C23D"/><g><path d="M114.47 157.34C114.87 158.17 115.27 159 115.67 159.83 115.73 166.18 115.8 172.53 115.86 178.88L118.35 180.37C118.44 171.93 118.56 165.71 118.58 163.59 118.58 163.06 118.58 161.73 119.03 160.06 119.25 159.26 119.5 158.62 119.68 158.21L118.48 157.56C118.2 157.67 117.9 157.84 117.64 158.11 116.58 159.2 117.03 160.94 117.07 161.09 117.09 160.82 117.16 159.55 116.24 158.47 115.59 157.7 114.79 157.43 114.46 157.34Z" fill="#637738"/><path d="M109.06 181.34C109.25 180.96 109.82 179.94 111.05 179.31 112.69 178.46 114.28 178.95 114.59 179.05 114.64 178.95 115.12 178.04 116.14 177.88 117 177.75 117.88 178.19 118.34 179 118.46 178.91 119.17 178.39 120.15 178.57 121.13 178.75 121.63 179.48 121.7 179.61 121.84 179.53 122.13 179.4 122.52 179.39 122.94 179.39 123.25 179.53 123.38 179.61 123.48 179.51 123.89 179.15 124.46 179.18 124.58 179.18 125.15 179.21 125.37 179.61 125.44 179.74 125.46 179.86 125.46 179.96 125.68 179.96 126.1 180 126.56 180.24 126.97 180.46 127.23 180.74 127.36 180.91 127.96 180.74 128.56 180.91 128.87 181.34 129.1 181.66 129.1 182.02 129.09 182.16 131.59 181.87 133.38 182.75 133.58 183.8 133.61 183.96 133.69 184.55 132.93 185.4 134.23 185.8 135.18 186.48 135.18 187.15 135.18 188.1 133.24 188.71 132.46 188.95 131.31 189.31 129.22 189.72 126.37 188.95 126.14 189.24 125.43 190.05 124.21 190.33 122.39 190.75 120.98 189.66 120.8 189.51 120.24 189.91 118.63 190.93 116.35 190.94 113.85 190.95 112.13 189.74 111.6 189.34 110.75 189.4 100.69 190.11 99.79 187.01 99.64 186.49 99.67 185.6 100.87 184.16 100.8 183.64 101.03 183.13 101.45 182.86 101.94 182.55 102.6 182.62 103.05 183.03 103.19 182.92 103.52 182.7 104 182.64 104.46 182.58 104.83 182.7 104.99 182.77 105.15 182.51 105.63 181.78 106.59 181.39 107.76 180.91 108.8 181.26 109.05 181.35Z" fill="#D85D89"/></g><path d="M117.66 158.15C118.46 156.86 119.17 155.97 119.68 155.39 119.89 155.15 120.06 154.96 120.31 154.77 121.17 154.09 122.08 153.93 122.67 153.83 124.98 153.45 126.13 153.26 127.21 153.2 130.5 153.02 131.63 153.36 132.19 153.56 133.62 154.07 133.98 154.67 134.17 154.97 134.61 155.67 134.64 156.67 134.07 157.27 133.68 157.68 133.09 157.84 132.54 157.98 131.68 158.2 130.81 158.42 129.95 158.63 129.75 158.68 129.23 158.92 128.49 159.12 128.35 159.16 128.24 159.19 128.16 159.2 126.68 159.41 125.22 159.75 123.73 159.77 122.78 159.78 120.62 159.72 119.54 158.5 119.37 158.31 119.12 157.96 118.68 157.88 118.28 157.81 117.92 157.98 117.68 158.14Z" fill="#8DC63F"/><path d="M116.25 153.16C115.61 152.64 114.72 151.99 113.57 151.37 113.19 151.17 112.6 150.86 111.85 150.57 110.65 150.11 109.41 149.73 108.14 149.58 106.33 149.36 104.49 149.57 102.7 149.89 102.3 149.96 101.89 150.04 101.53 150.22 101.17 150.4 100.83 150.69 100.68 151.08 100.5 151.54 100.6 152.08 100.85 152.5 101.1 152.92 101.47 153.25 101.86 153.54 103.47 154.71 105.43 155.3 107 156.51 107.49 156.89 107.94 157.33 108.5 157.59 109.37 158.01 110.39 157.94 111.34 157.77 113.13 157.46 113.36 157.28 114.21 157.42 114.85 157.53 115.68 157.87 116.57 158.88 116.47 156.97 116.37 155.06 116.27 153.15Z" fill="#8DC63F"/></g><g filter="url(#drop-shadow-2)"><g><path d="M35.76 178.28C34.33 176.31 32.9 174.33 31.47 172.36 33.39 170.45 35.31 168.54 37.23 166.63" fill="#7E9ECD"/><path d="M60.05 179.81C58.51 177.92 56.97 176.03 55.43 174.14 57.46 172.15 59.49 170.15 61.52 168.16" fill="#7E9ECD"/><g><rect x="28.2" y="160.18" width="6.97" height="11.02" fill="#CC9668" transform="matrix(0.772512 -0.635 0.635 0.772512 -98.01 57.81)"/><rect x="53.62" y="161.54" width="6.97" height="9.81" fill="#CC9668" transform="matrix(0.772512 -0.635 0.635 0.772512 -92.7 74.13)"/><g><path d="M51.72 170.5C54.69 167.54 57.67 164.58 60.64 161.62 55.01 156.5 49.39 151.39 43.76 146.27 40 149.48 36.23 152.69 32.47 155.9 32.64 156.15 34.33 158.6 37.13 158.72 38.85 158.8 40.04 157.95 40.46 157.63 44.21 161.92 47.97 166.2 51.72 170.49Z" fill="#97479B"/><path d="M43.14 156.72C44.25 156.19 45.21 155.38 45.98 154.42 46.74 153.47 47.33 152.32 47.33 151.04" fill="#97479B"/></g><g><path d="M27.41 169.44C30.38 166.48 33.36 163.52 36.33 160.56 30.7 155.44 25.08 150.33 19.45 145.21 15.69 148.42 11.92 151.63 8.16 154.84 8.33 155.09 10.02 157.54 12.82 157.66 14.54 157.74 15.73 156.89 16.15 156.57 19.9 160.86 23.66 165.14 27.41 169.43Z" fill="#97479B"/><path d="M15.67 156.91C16.84 156.34 17.85 155.48 18.65 154.46 19.45 153.44 19.98 152.29 19.98 151.02 19.98 150.7 19.48 150.7 19.48 151.02 19.48 152.22 18.92 153.33 18.18 154.26 17.44 155.19 16.5 155.96 15.42 156.49 15.13 156.63 15.38 157.06 15.67 156.92L15.67 156.92Z" fill="#77327C"/></g><path d="M70.65 105.41C70.38 102.91 70.31 100.29 69.57 97.88 68.92 95.78 67.78 93.51 66.04 92.1 65.79 91.9 65.44 92.25 65.69 92.45 67.42 93.85 68.54 96.13 69.16 98.23 69.84 100.54 69.91 103.03 70.16 105.41 70.19 105.73 70.69 105.73 70.66 105.41L70.66 105.41Z" fill="#A5842E"/><path d="M65.74 99.69C67.19 106.01 68.38 110.73 69.19 113.88 70.06 117.25 70.82 119.99 69.39 122.34 68.94 123.08 68.32 123.73 65.07 125.74 62.4 127.4 60.1 128.65 58.45 129.5 58.47 131.09 58.42 132.74 58.3 134.44 58.28 134.69 58.26 134.93 58.24 135.18 62.08 134.72 65.09 133.78 67.12 133.01 70.57 131.7 72.85 130.84 74.75 128.51 76.42 126.46 77.1 124.14 77.37 123.22 78 121.09 78.03 119.41 78.03 118.95 78.03 118.02 77.94 118.29 77.75 116.04 77.5 113.1 77.6 112 77.12 109.69 77.03 109.26 77.06 109.4 76.9 108.72 76.04 105.12 76.62 103.92 75.59 101.87 75.21 101.12 74.61 100.23 73.52 98.63 73.34 98.37 73.24 98.22 73.11 98.05 72.25 96.94 71.29 96.27 70.61 95.88" fill="#CC9668"/><path d="M43 107.87C44.55 106.06 45.63 103.9 46.13 101.58 46.2 101.27 45.72 101.13 45.65 101.45 45.17 103.69 44.14 105.78 42.65 107.52 42.44 107.76 42.79 108.12 43 107.87L43 107.87Z" fill="#A5842E"/><path d="M39.97 131.56C38.57 147.17 37.16 162.78 35.76 178.39 37.41 179.31 40.39 180.67 44.35 181.03 48.79 181.43 52.28 180.36 54.1 179.67 55.4 170.55 56.71 161.43 58.01 152.31 58.71 161.45 59.41 170.6 60.11 179.74 62.11 180.23 65.37 180.78 69.33 180.28 73.49 179.75 76.62 178.29 78.45 177.26 76.16 162.73 73.87 148.2 71.58 133.67L39.96 131.57Z" fill="#7E9ECD"/><path d="M75.34 102.19C75.8 100.37 76.33 97.12 75.31 93.47 75.06 92.57 74.57 90.88 73.25 89.04 72.11 87.45 70.84 86.41 69.95 85.79 68.74 85.61 67.51 85.45 66.26 85.31 55.93 84.13 46.26 84.38 37.46 85.45 35.91 87.03 34.08 89.18 32.39 91.95 30.43 95.15 29.26 98.14 28.55 100.47 33.33 102.96 38.1 105.45 42.88 107.94 42.07 108.46 40.9 109.38 40.28 110.88 39.35 113.12 40.35 114.98 40.69 118.5 40.83 119.96 40.9 122.16 40.42 124.95L37.68 134.07 71.96 134.48C70.18 126.51 70.44 121.18 71.07 117.71 71.29 116.48 71.92 113.53 71.39 109.7 71.03 107.08 70.25 105 69.64 103.63 71.54 103.15 73.45 102.68 75.35 102.2Z" fill="#F6C93C"/><path d="M56.55 134.57C58.89 134.38 60.1 133.23 62 134.06 64.6 135.19 65.21 138.71 65.29 139.2 65.68 141.64 64.99 144.82 62.51 146.71 61.99 147.11 59.45 149.04 56.54 147.94 54.57 147.2 53.15 145.34 52.84 143.11 48.18 140.74 43.52 138.38 38.85 136.01 36.05 134.1 33.63 132.79 31.94 131.95 27.01 129.49 24.73 129.25 22.52 126.54 20.6 124.19 20.22 121.82 20.15 121.35 19.81 119.01 20.38 117.11 20.74 116.16 23.33 110.93 25.93 105.69 28.52 100.46 33.3 102.95 38.07 105.44 42.85 107.93 40.24 110.68 38.36 113.21 37.06 115.15 35.14 118.01 34.98 118.84 35.03 119.55 35.21 121.87 37.7 122.81 42.36 125.86 51.2 131.65 52.39 134.9 56.53 134.57Z" fill="#CC9668"/><path d="M69.95 85.79C70.05 85.03 70.11 84.16 70.09 83.2 70.08 82.5 70.02 81.85 69.95 81.26 69.95 81.26 69.83 80.36 68.92 76.53 68.55 74.4 68.72 72.74 68.92 71.66 69.12 70.62 69.4 69.82 69.95 68.3 70.98 65.42 71.32 65.39 71.53 64.05 71.73 62.73 71.41 62.75 71.39 60.07 71.38 57.82 71.61 57.69 71.53 55.89 71.44 53.77 71.39 52.69 70.64 51.64 69.85 50.54 68.74 50.11 67.55 49.65 65.65 48.91 64 48.94 63.02 48.96 61.67 48.99 60.8 49.2 59.39 49.51 53.81 50.71 53.9 50.31 51.64 51.02 48.66 51.95 47.14 52.42 45.81 53.76 43.21 56.38 43.21 60.42 43.2 63.63 43.2 68.85 44.78 70.88 43.2 73.85 42.86 74.49 42.53 74.87 41.21 77.14 40.17 78.92 39.49 80.09 39.08 80.98 38.43 82.4 37.69 84.82 38.12 88.52 38.27 90.46 38.68 93.17 39.83 96.2 40.68 98.41 42.22 102.46 44.22 102.44 44.61 102.44 45.13 102.27 47.24 99.7 49.19 97.32 50.17 96.13 50.81 94.83 52.48 91.44 52.4 88 52.11 85.85 55.3 85.84 58.48 85.82 61.67 85.81 62.83 85.52 64.39 85.26 66.24 85.31 67.69 85.34 68.94 85.55 69.93 85.79Z" fill="#61364B"/><path d="M67.76 54.59C68.54 54.63 69.09 56.92 69.27 58.29 69.4 59.31 69.32 59.81 69.27 61.65 69.21 63.98 69.31 64.14 69.27 65.7 69.19 68.72 69.15 70.22 68.52 71.87 68.25 72.58 67.23 75.24 64.54 76.74 60.71 78.88 56.54 76.98 56.04 76.74L55.01 75.92C56.41 76.98 57.49 77.98 58.23 78.73 59.46 79.97 60.29 80.82 60.97 82.23 61.33 82.98 61.77 83.92 61.72 85.18 61.7 85.66 61.66 86.65 61.03 87.51 59.81 89.19 57.35 89.07 56.78 89.02 55.21 88.88 53.16 88.03 52.46 86.35 52.04 85.35 52.37 84.68 52.77 82.58 53.19 80.38 53.77 77.34 53.22 74.9 52.93 73.64 52.17 71.82 49.93 69.89 49.71 69.97 48.21 70.51 46.84 69.68 45.01 68.58 45.24 66.15 45.26 65.98 45.53 63.65 47.74 62.64 47.93 62.55 48.29 62.39 49.51 61.88 50.95 62.34 52.86 62.96 53.54 64.78 53.62 65.01 54.41 62.3 55.62 61.23 56.57 60.76 58.58 59.75 59.98 61.09 62.6 59.87 64.43 59.02 65.69 57.46 65.82 57.3 67.04 55.77 67.17 54.57 67.74 54.59Z" fill="#CC9668"/><path d="M58.15 66C58.15 66 58.15 66.03 58.15 66.04L60.61 65.71 60.61 65.71C60.62 65.82 60.64 65.93 60.65 66.04 60.65 65.99 60.65 65.94 60.65 65.89 60.65 65.72 60.62 65.56 60.54 65.41 60.49 65.26 60.4 65.12 60.28 65.01 60.17 64.89 60.03 64.8 59.88 64.75 59.73 64.67 59.57 64.64 59.4 64.64L59.07 64.68C58.86 64.74 58.67 64.85 58.52 65L58.32 65.25C58.21 65.44 58.15 65.66 58.15 65.88 58.15 65.92 58.15 65.95 58.15 65.99 58.15 65.99 58.15 66.01 58.15 66.02 58.15 66.02 58.15 66.02 58.15 66.02 58.15 66.02 58.15 66.02 58.15 66.02 58.15 66.02 58.19 66.35 58.19 66.35 58.23 66.51 58.3 66.65 58.41 66.78 58.5 66.92 58.62 67.02 58.76 67.1L59.06 67.23C59.23 67.28 59.39 67.29 59.56 67.25 59.67 67.25 59.78 67.22 59.88 67.16 60.03 67.11 60.17 67.02 60.28 66.9L60.48 66.65C60.59 66.46 60.65 66.24 60.65 66.02 60.65 66.01 60.65 65.99 60.65 65.98 60.65 65.81 60.62 65.65 60.54 65.5 60.49 65.35 60.4 65.21 60.28 65.1 60.17 64.98 60.03 64.89 59.88 64.84 59.73 64.76 59.57 64.73 59.4 64.73L59.07 64.77C58.86 64.83 58.67 64.94 58.52 65.09L58.32 65.34C58.21 65.53 58.15 65.75 58.15 65.97L58.15 65.97Z" fill="#642021"/><path d="M68.56 62.1C67.75 61.96 66.93 61.92 66.12 62.02 65.96 62.04 65.83 62.07 65.71 62.19 65.61 62.29 65.54 62.45 65.54 62.6 65.55 62.88 65.8 63.22 66.12 63.18 66.48 63.14 66.84 63.11 67.2 63.12 67.41 63.12 67.61 63.13 67.81 63.15 67.85 63.15 67.89 63.15 67.94 63.16 67.97 63.16 67.99 63.16 68.02 63.16 68.08 63.16 68.07 63.16 67.99 63.16 68.07 63.15 68.18 63.19 68.26 63.2 68.42 63.23 68.56 63.22 68.7 63.14 68.82 63.07 68.93 62.93 68.96 62.8 69.02 62.52 68.88 62.15 68.56 62.09L68.56 62.09Z" fill="#642021"/><path d="M60.79 62.23C59.67 62.03 58.53 61.99 57.4 62.13 57.1 62.17 56.81 62.37 56.82 62.71 56.83 62.99 57.08 63.33 57.4 63.29 57.91 63.23 58.42 63.2 58.93 63.2 59.22 63.2 59.51 63.22 59.8 63.25 59.86 63.25 59.92 63.26 59.98 63.27 60 63.27 60.22 63.3 60.11 63.29 60.24 63.31 60.36 63.33 60.49 63.35 60.79 63.4 61.12 63.27 61.2 62.95 61.26 62.67 61.12 62.3 60.8 62.24L60.8 62.24Z" fill="#642021"/><path d="M63.44 67.58C63.51 68.06 63.59 68.54 63.66 69.01L63.64 68.84C63.64 68.84 63.64 68.87 63.64 68.88L63.73 68.56 63.73 68.58C63.8 68.51 63.87 68.43 63.94 68.36L63.92 68.36C63.92 68.36 64.02 68.33 64.07 68.31L64.05 68.31C64.11 68.31 64.16 68.3 64.22 68.29 64.14 68.29 64.06 68.29 63.98 68.29 63.82 68.29 63.65 68.36 63.54 68.47 63.43 68.58 63.35 68.76 63.36 68.91 63.38 69.25 63.63 69.53 63.98 69.53 64.06 69.53 64.13 69.53 64.21 69.53 64.51 69.52 64.79 69.34 64.87 69.03 64.92 68.86 64.87 68.69 64.85 68.52L64.81 68.25 64.65 67.22C64.63 67.08 64.48 66.92 64.36 66.85 64.23 66.77 64.03 66.74 63.88 66.79 63.73 66.84 63.58 66.93 63.51 67.08L63.45 67.23C63.42 67.34 63.42 67.45 63.45 67.56L63.45 67.56Z" fill="#642021"/><path d="M51.41 66.13C51.54 65.51 51.42 64.86 51.03 64.35 50.64 63.84 50.15 63.53 49.56 63.35 48.97 63.17 48.29 63.12 47.77 63.49 47.25 63.86 47 64.46 46.84 65.08 46.75 65.4 46.95 65.77 47.28 65.85 47.61 65.93 47.96 65.75 48.05 65.41 48.08 65.3 48.11 65.19 48.14 65.09 48.16 65.04 48.17 64.99 48.19 64.95 48.25 64.78 48.14 65.04 48.22 64.88 48.26 64.8 48.31 64.72 48.36 64.64 48.3 64.75 48.36 64.64 48.39 64.61 48.42 64.58 48.45 64.55 48.48 64.52 48.53 64.47 48.39 64.57 48.49 64.52 48.51 64.51 48.53 64.5 48.56 64.48 48.6 64.46 48.59 64.47 48.53 64.5 48.54 64.5 48.7 64.46 48.62 64.47 48.54 64.48 48.7 64.47 48.72 64.47 48.78 64.47 48.84 64.47 48.9 64.48 48.81 64.48 48.89 64.48 48.94 64.48 49.04 64.5 49.15 64.52 49.25 64.55 49.3 64.56 49.34 64.58 49.39 64.59 49.43 64.6 49.51 64.64 49.43 64.6 49.53 64.64 49.62 64.69 49.71 64.75 49.75 64.78 49.79 64.8 49.83 64.83 49.72 64.76 49.85 64.85 49.87 64.87 49.94 64.93 49.99 65 50.05 65.06 49.96 64.97 50.06 65.08 50.08 65.1 50.1 65.14 50.13 65.17 50.15 65.21 50.17 65.25 50.19 65.29 50.21 65.33 50.15 65.2 50.21 65.36 50.21 65.38 50.22 65.42 50.23 65.47 50.24 65.51 50.26 65.57 50.24 65.43 50.24 65.55 50.24 65.61 50.24 65.67 50.24 65.73 50.24 65.87 50.26 65.65 50.23 65.8 50.16 66.12 50.32 66.49 50.67 66.57 50.98 66.64 51.37 66.48 51.44 66.13L51.44 66.13Z" fill="#642021"/><path d="M64.79 72.67C64.4 72.76 64.09 72.79 63.66 72.78 63.26 72.77 62.95 72.72 62.53 72.6 61.79 72.38 61.13 71.99 60.58 71.43 60.03 70.87 59.13 71.74 59.7 72.31 61.09 73.73 63.19 74.33 65.12 73.88 65.45 73.8 65.64 73.43 65.56 73.11 65.47 72.77 65.12 72.6 64.79 72.67L64.79 72.67Z" fill="#642021"/><path d="M66.43 66.07C66.43 66.07 66.43 66.1 66.43 66.11L68.64 65.81 68.64 65.81C68.65 65.91 68.67 66.01 68.68 66.11 68.68 66.06 68.68 66.01 68.68 65.96 68.68 65.81 68.65 65.66 68.58 65.53 68.53 65.39 68.46 65.27 68.35 65.17 68.25 65.06 68.13 64.98 67.99 64.94 67.86 64.87 67.71 64.84 67.56 64.84L67.26 64.88C67.07 64.93 66.9 65.03 66.76 65.17L66.58 65.4C66.48 65.58 66.43 65.76 66.43 65.97 66.43 66.01 66.43 66.04 66.43 66.08 66.43 66.08 66.43 66.1 66.43 66.11 66.43 66.11 66.43 66.11 66.43 66.11 66.43 66.11 66.43 66.11 66.43 66.11 66.43 66.11 66.47 66.41 66.47 66.41 66.5 66.56 66.57 66.68 66.67 66.79 66.75 66.91 66.85 67.01 66.99 67.08L67.26 67.19C67.41 67.24 67.56 67.24 67.71 67.21 67.81 67.21 67.91 67.18 67.99 67.13 68.13 67.08 68.25 67.01 68.35 66.9L68.53 66.67C68.63 66.49 68.68 66.31 68.68 66.1 68.68 66.09 68.68 66.07 68.68 66.06 68.68 65.91 68.65 65.76 68.58 65.63 68.53 65.49 68.46 65.37 68.35 65.27 68.25 65.16 68.13 65.08 67.99 65.04 67.86 64.97 67.71 64.94 67.56 64.94L67.26 64.98C67.07 65.03 66.9 65.13 66.76 65.27L66.58 65.5C66.48 65.68 66.43 65.86 66.43 66.07L66.43 66.07Z" fill="#642021"/></g></g><g><g><g mask="url(#mask)"><path d="M67.97 138C67.44 136.51 66.27 135.43 64.9 135.22 63.68 135.04 62.72 135.61 62.42 135.79 61.07 136.61 60.62 138 60.17 139.39 59.56 141.25 59.58 142.81 59.6 144.05 59.63 145.72 59.89 146.97 60.04 147.7 60.3 148.92 60.73 150.48 61.52 152.21L59.84 156.2C61.47 158.11 63.11 159.4 64.31 160.21 66.28 161.54 67.96 162.2 68.39 162.37 69.42 162.77 71.01 163.36 73.19 163.51 74.83 163.62 76.19 163.44 77.11 163.25L78.32 160.38 96.71 153.46C97.55 155.14 98.62 156.11 99.41 155.92 99.65 155.86 99.81 155.71 99.91 155.62 100.73 154.81 100.32 153.17 100.08 152.25 99.7 150.74 99.02 149.75 98.37 148.82 97.71 147.87 96.96 146.79 96.37 146.95 95.98 147.06 95.83 147.68 95.72 148.14 95.42 149.4 95.72 150.56 96.05 151.36L79.9 156.96 84.81 144.95C83.4 143.5 81.43 141.82 78.79 140.43 77.45 139.72 75.25 138.59 72.13 138.14 70.44 137.9 68.99 137.93 67.95 138.01Z" fill="#EE6544"/></g><path d="M67.97 138C69.12 137.9 70.72 137.88 72.61 138.2 74.77 138.57 76.31 139.23 77.27 139.65 77.92 139.93 79.84 140.81 82.02 142.45 83.22 143.36 84.16 144.24 84.84 144.93 83.41 145.04 81.4 145.05 79.06 144.61 77.35 144.29 74.93 143.82 72.33 142.15 71.21 141.43 69.52 140.14 67.98 137.99Z" fill="#E94F2E"/><path d="M68.96 138.38C70.85 138.26 72.41 138.47 73.5 138.7 75.02 139.02 76.13 139.48 76.84 139.78 78.66 140.54 79.92 141.37 80.73 141.91 81.61 142.5 82.72 143.32 83.91 144.41 81.76 144.37 79.96 144.08 78.61 143.77 76.97 143.4 75.06 142.97 72.92 141.7 71.11 140.63 69.82 139.38 68.95 138.38Z" fill="#E13A26"/></g><ellipse cx="98.21" cy="151.32" rx="1.21" ry="3.75" fill="#E94F2E" transform="matrix(0.920095 -0.391695 0.391695 0.920095 -51.43 50.56)"/></g></g><path d="M42.65 186.1C42.78 182.32 41.41 178.51 38.9 175.68 40.96 177.18 42.66 179.11 44.34 181.03 43.74 175.53 45.24 169.82 48.48 165.33 47.03 167.43 46.91 170.17 47.3 172.69 47.69 175.21 48.55 177.64 48.88 180.16 50.01 178.15 51.27 176.02 53.36 175.05 51.68 179.12 52.42 184.08 55.22 187.48" fill="#D85D89"/><g><path d="M49.49 13.41C50.06 10.59 51.58 8.06 53.33 5.78 53.98 4.94 54.69 4.1 55.66 3.65 56.59 3.21 57.72 3.2 58.66 3.62 59.6 4.04 60.35 4.87 60.66 5.86 61.11 7.29 60.65 8.81 60.46 10.3 60.37 11.05 60.35 11.8 60.26 12.55 60.06 14.19 59.51 15.78 58.78 17.27 58.52 17.78 58.24 18.29 57.84 18.7 57.1 19.45 55.97 19.79 54.93 19.58 54.69 19.53 54.45 19.45 54.22 19.52 54 19.58 53.84 19.76 53.69 19.93 53.31 20.36 52.93 20.79 52.55 21.22 52.43 20.57 52.32 19.92 52.2 19.27 52.18 19.14 52.15 19 52.08 18.88 51.96 18.69 51.72 18.6 51.52 18.49 50.66 18.06 50.08 17.17 49.81 16.25 49.53 15.32 49.51 14.34 49.49 13.37" fill="#333333"/><path d="M51.92 8.42C52.25 8.05 52.77 8.1 53.2 8.18 55.4 8.61 57.65 9.21 59.33 10.77 59.55 10.97 59.75 11.18 59.9 11.45 60.05 10.77 60.15 10.08 60.2 9.39 60.2 9.33 60.2 9.26 60.19 9.2 60.16 9.13 60.11 9.08 60.05 9.04 56.32 6.3 54.04 6.8 54.04 6.8 53.75 6.82 53.32 6.88 52.81 7.01 52.51 7.48 52.21 7.95 51.92 8.42Z" fill="#FEC40D"/><path d="M50.7 10.57C50.53 10.9 50.35 11.3 50.2 11.77 50.07 12.18 49.98 12.56 49.92 12.89 50.99 12.84 51.9 12.89 52.61 12.98 53.9 13.13 54.87 13.4 55.37 13.55 55.81 13.68 56.24 13.83 56.65 14.04 57.31 14.38 57.77 14.75 58.09 15 58.49 15.32 58.79 15.62 59.01 15.85 59.14 15.53 59.28 15.17 59.4 14.79 59.52 14.41 59.62 14.05 59.7 13.72 59.36 13.37 58.83 12.88 58.11 12.41 56.49 11.35 54.93 11.07 53.51 10.83 52.81 10.71 51.86 10.59 50.7 10.58Z" fill="#FEC40D"/><path d="M53.28 18.95C55.87 19.69 57.86 17.92 57.98 17.81 57.01 17.03 55.25 15.86 52.8 15.34 51.65 15.1 50.62 15.06 49.79 15.09 50.14 16.94 51.5 18.44 53.28 18.95Z" fill="#FEC40D"/><path d="M57.12 11.83C57.53 13.49 58.17 14.7 58.65 15.46 58.65 15.46 59.64 17.18 61.23 18.01 61.44 18.12 61.67 18.22 61.91 18.22 62.15 18.22 62.39 18.14 62.62 18.05 63.06 17.87 63.5 17.68 63.86 17.37 64.18 17.1 64.41 16.74 64.55 16.35 64.78 15.72 64.87 14.37 64.13 14.02 63.68 13.81 63.09 13.76 62.6 13.65 61.27 13.34 59.99 12.88 58.71 12.42 58.03 12.18 57.48 11.96 57.13 11.83 59.23 9.66 60.88 8.19 61.31 7.92 61.77 7.63 62.23 7.45 62.23 7.45 62.33 7.41 62.44 7.37 62.56 7.34 64.12 6.87 65.84 7.51 67.1 8.54 67.59 8.94 68.04 9.41 68.26 10.01 68.6 10.93 68.3 11.99 67.75 12.8 67.3 13.46 66.65 14.03 65.87 14.19 65.73 14.22 65.57 14.23 65.57 14.23 64.95 14.29 64.45 14.15 64.14 14.03" fill="#FFFFFF"/><path d="M53.91 10.74C52.62 11.85 51.39 12.47 50.56 12.81 50.56 12.81 48.76 13.64 46.98 13.39 46.74 13.36 46.5 13.3 46.3 13.17 46.1 13.03 45.96 12.83 45.83 12.62 45.57 12.22 45.33 11.8 45.22 11.34 45.12 10.94 45.14 10.51 45.25 10.11 45.43 9.46 46.14 8.31 46.94 8.46 47.43 8.55 47.94 8.85 48.41 9.04 49.67 9.56 50.98 9.93 52.29 10.3 52.98 10.5 53.55 10.64 53.92 10.73 53.47 7.75 52.98 5.59 52.78 5.12 52.57 4.61 52.3 4.21 52.3 4.21 52.24 4.12 52.17 4.02 52.09 3.92 51.09 2.63 49.32 2.16 47.69 2.26 47.06 2.3 46.42 2.43 45.9 2.78 45.09 3.33 44.72 4.37 44.7 5.35 44.68 6.15 44.88 6.99 45.43 7.57 45.53 7.68 45.65 7.78 45.65 7.78 46.12 8.18 46.61 8.36 46.93 8.45" fill="#FFFFFF"/><path d="M60.17 4.72C60.57 3.91 61.23 3.04 62.22 3 62.3 3 62.47 2.97 62.55 3.02 62.55 3.02 62.52 2.96 62.55 3.03 62.56 3.06 62.55 3.1 62.55 3.13 62.55 3.41 62.47 3.65 62.57 3.92 62.73 4.35 63.15 4.68 63.62 4.65 64.09 4.62 64.52 4.2 64.55 3.71 64.58 3.22 64.17 2.79 63.76 2.6 63.26 2.36 62.66 2.63 62.66 3.23 62.66 3.72 63.04 4.2 63.55 4.24 63.81 4.26 64.07 4.16 64.2 3.92 64.35 3.62 64.16 3.31 63.91 3.13 63.69 2.97 63.37 2.9 63.16 3.13 62.95 3.36 63.04 3.79 63.37 3.85 63.57 3.89 63.77 3.8 63.83 3.59 63.88 3.41 63.77 3.17 63.57 3.13L63.54 3.13C63.61 3.18 63.69 3.24 63.76 3.3L63.78 3.33 63.78 3.5C63.76 3.56 63.72 3.61 63.69 3.67L63.71 3.65 63.54 3.75 63.59 3.75C63.52 3.74 63.46 3.74 63.39 3.74 63.42 3.74 63.45 3.77 63.48 3.78 63.53 3.78 63.48 3.84 63.48 3.76L63.53 3.57C63.61 3.55 63.63 3.53 63.59 3.53 63.59 3.53 63.57 3.53 63.56 3.53 63.55 3.5 63.46 3.46 63.44 3.42 63.41 3.37 63.41 3.33 63.39 3.27 63.37 3.27 63.36 3.28 63.35 3.3 63.36 3.3 63.38 3.3 63.39 3.31 63.43 3.35 63.52 3.38 63.56 3.42 63.62 3.47 63.68 3.52 63.72 3.58 63.78 3.66 63.81 3.75 63.75 3.84 63.61 4.06 63.33 3.93 63.26 3.72 63.2 3.55 63.28 3.36 63.28 3.18 63.28 3 63.25 2.83 63.16 2.68 62.95 2.32 62.5 2.27 62.12 2.3 61.72 2.33 61.32 2.46 60.97 2.66 60.3 3.05 59.83 3.7 59.5 4.38 59.29 4.81 59.94 5.19 60.15 4.76L60.15 4.76Z" fill="#333333"/><path d="M56.63 3.89C56.73 3.16 56.73 2.41 56.44 1.73 56.19 1.14 55.74 0.58 55.13 0.35 54.74 0.2 54.37 0.41 54.16 0.74 54.09 0.85 54.05 1 53.97 1.1 53.91 1.18 53.82 1.23 53.72 1.25 53.57 1.28 53.46 1.21 53.42 1.04 53.42 1.01 53.42 0.92 53.45 0.88 53.48 0.84 53.63 0.78 53.73 0.77 53.81 0.76 53.98 0.79 54.03 0.77 54.03 0.77 54.03 0.75 54.03 0.75 54.03 0.74 54.03 0.72 54.03 0.71L54 0.76C54 0.76 53.94 0.81 53.91 0.83 53.82 0.88 53.87 0.85 53.88 0.85 53.88 0.85 53.77 0.87 53.81 0.87 53.78 0.87 53.75 0.87 53.72 0.87 53.78 0.87 53.66 0.85 53.71 0.87 53.63 0.85 53.73 0.84 53.71 0.87L53.64 1.14C53.64 1.14 53.62 1.15 53.64 1.14 53.64 1.14 53.66 1.14 53.69 1.14 53.75 1.12 53.72 1.18 53.66 1.11L53.56 0.94 53.56 0.97C53.56 0.9 53.56 0.84 53.56 0.77L53.56 0.8C53.58 0.74 53.61 0.69 53.64 0.63L53.62 0.65 53.79 0.55 53.76 0.55C53.86 0.57 53.95 0.59 54.05 0.6L54.02 0.6C53.83 0.51 53.62 0.53 53.51 0.72 53.42 0.88 53.46 1.15 53.64 1.23 53.79 1.29 53.93 1.32 54.07 1.23 54.21 1.14 54.3 0.97 54.28 0.8 54.25 0.49 53.94 0.37 53.67 0.36 53.43 0.36 53.17 0.44 53.04 0.66 52.87 0.95 53.01 1.27 53.27 1.45 53.65 1.71 54.2 1.6 54.51 1.28 54.7 1.09 54.82 0.81 54.74 0.54 54.66 0.27 54.44 0.1 54.19 0.03 53.72-0.09 53.08 0.05 52.8 0.47 52.55 0.84 52.63 1.38 52.93 1.69 53.26 2.03 53.79 2.05 54.19 1.84 54.4 1.73 54.55 1.54 54.66 1.33 54.71 1.24 54.75 1.14 54.81 1.05 54.83 1.03 54.89 1.01 54.84 1.02 54.79 1.03 54.87 1.04 54.89 1.05 55.28 1.23 55.59 1.63 55.74 2.03 55.94 2.55 55.95 3.13 55.88 3.68 55.85 3.88 55.93 4.08 56.14 4.14 56.31 4.19 56.57 4.08 56.6 3.88L56.6 3.88Z" fill="#333333"/></g><g><path d="M146.14 41.28C144.81 39.05 144.3 36.44 144.09 33.85 144.01 32.89 143.98 31.9 144.35 31.01 144.71 30.15 145.45 29.47 146.34 29.17 147.23 28.87 148.23 28.98 149.03 29.45 150.19 30.13 150.81 31.43 151.59 32.54 151.98 33.1 152.43 33.61 152.82 34.17 153.68 35.39 154.28 36.78 154.69 38.22 154.83 38.72 154.95 39.23 154.93 39.75 154.89 40.7 154.34 41.62 153.52 42.1 153.33 42.21 153.12 42.31 153.01 42.49 152.9 42.66 152.9 42.88 152.9 43.08 152.9 43.6 152.91 44.12 152.92 44.64 152.45 44.28 151.98 43.91 151.51 43.55 151.41 43.47 151.31 43.4 151.19 43.37 150.99 43.32 150.78 43.4 150.58 43.45 149.74 43.68 148.82 43.44 148.08 42.99 147.34 42.54 146.72 41.89 146.13 41.26" fill="#333333"/><path d="M144.75 36.47C144.75 36.02 145.12 35.74 145.46 35.53 147.19 34.49 149.06 33.53 151.13 33.54 151.39 33.54 151.66 33.56 151.93 33.65 151.62 33.1 151.27 32.58 150.89 32.09 150.85 32.04 150.82 32 150.77 31.97 150.71 31.94 150.64 31.94 150.58 31.95 146.43 32.38 145.2 34.09 145.2 34.09 145.02 34.28 144.77 34.58 144.5 34.98 144.59 35.47 144.67 35.97 144.76 36.46Z" fill="#FEC40D"/><path d="M145.23 38.66C145.32 38.98 145.44 39.36 145.62 39.76 145.78 40.12 145.95 40.42 146.11 40.68 146.79 40 147.44 39.49 147.97 39.11 148.93 38.43 149.73 38.02 150.16 37.82 150.53 37.64 150.91 37.48 151.31 37.37 151.95 37.2 152.49 37.16 152.85 37.14 153.31 37.11 153.7 37.13 153.98 37.14 153.87 36.84 153.75 36.53 153.6 36.19 153.45 35.86 153.3 35.57 153.15 35.29 152.71 35.26 152.06 35.25 151.29 35.38 149.57 35.65 148.36 36.41 147.26 37.11 146.72 37.45 146.01 37.95 145.23 38.64Z" fill="#FEC40D"/><path d="M152.03 42.69C154.21 41.61 154.47 39.22 154.48 39.08 153.36 39.15 151.47 39.42 149.52 40.56 148.61 41.09 147.89 41.69 147.36 42.22 148.72 43.24 150.53 43.43 152.03 42.68Z" fill="#FEC40D"/><path d="M150.29 35.61C151.57 36.47 152.73 36.89 153.51 37.11 153.51 37.11 155.21 37.67 156.78 37.25 156.99 37.2 157.2 37.12 157.36 36.98 157.53 36.84 157.63 36.63 157.73 36.44 157.92 36.06 158.09 35.66 158.15 35.23 158.2 34.86 158.14 34.48 158 34.13 157.77 33.57 157.01 32.61 156.31 32.83 155.88 32.96 155.45 33.29 155.06 33.51 153.99 34.11 152.85 34.58 151.71 35.05 151.11 35.3 150.61 35.49 150.3 35.61 150.39 32.89 150.6 30.91 150.73 30.46 150.86 29.99 151.06 29.59 151.06 29.59 151.11 29.5 151.15 29.41 151.21 29.31 151.97 28.05 153.51 27.44 154.98 27.36 155.55 27.33 156.14 27.38 156.64 27.64 157.42 28.05 157.87 28.94 157.99 29.81 158.09 30.52 157.99 31.3 157.57 31.88 157.49 31.99 157.39 32.09 157.39 32.09 157.01 32.5 156.59 32.71 156.31 32.82" fill="#FFFFFF"/><path d="M147.48 36.82C147.29 38.35 146.84 39.51 146.49 40.24 146.49 40.24 145.79 41.89 144.45 42.8 144.27 42.92 144.08 43.03 143.87 43.06 143.65 43.09 143.43 43.04 143.22 42.98 142.81 42.87 142.39 42.74 142.04 42.5 141.73 42.29 141.48 42 141.31 41.66 141.04 41.12 140.81 39.92 141.44 39.53 141.82 39.29 142.35 39.18 142.77 39.03 143.93 38.61 145.03 38.06 146.13 37.52 146.71 37.23 147.18 36.98 147.48 36.82 145.37 35.1 143.74 33.96 143.32 33.76 142.88 33.55 142.45 33.44 142.45 33.44 142.35 33.41 142.25 33.39 142.14 33.37 140.69 33.12 139.22 33.87 138.2 34.93 137.8 35.34 137.45 35.81 137.32 36.37 137.11 37.23 137.49 38.15 138.07 38.82 138.54 39.37 139.18 39.81 139.9 39.87 140.03 39.88 140.18 39.87 140.18 39.87 140.74 39.85 141.17 39.68 141.44 39.54" fill="#FFFFFF"/><path d="M148.05 28.97C147.82 28.18 147.76 27.2 148.42 26.59 148.47 26.55 148.53 26.48 148.59 26.46 148.6 26.46 148.52 26.45 148.55 26.46 148.58 26.48 148.61 26.51 148.63 26.54 148.77 26.71 148.87 26.9 149.06 27.02 149.43 27.25 149.96 27.23 150.28 26.92 150.6 26.61 150.65 26.11 150.42 25.74 150.16 25.33 149.61 25.27 149.18 25.36 148.65 25.48 148.35 26.05 148.73 26.5 149 26.83 149.5 26.94 149.89 26.74 150.14 26.61 150.33 26.33 150.27 26.04 150.21 25.77 149.94 25.63 149.68 25.63 149.4 25.63 149.07 25.75 149.02 26.06 148.96 26.41 149.35 26.7 149.66 26.5 150.07 26.25 149.69 25.6 149.28 25.85L149.26 25.85C149.36 25.85 149.45 25.84 149.55 25.83L149.52 25.83C149.58 25.86 149.63 25.89 149.69 25.92L149.71 25.95 149.76 26.14 149.76 26.11C149.74 26.17 149.73 26.24 149.71 26.3L149.73 26.27 149.6 26.4C149.69 26.33 149.62 26.39 149.62 26.39 149.62 26.39 149.69 26.39 149.64 26.39 149.66 26.39 149.68 26.38 149.67 26.39L149.67 26.39C149.76 26.42 149.75 26.37 149.65 26.23L149.59 26.06C149.59 26.06 149.55 26.1 149.56 26.09 149.56 26.09 149.58 26.09 149.58 26.09 149.53 26.12 149.5 26.11 149.48 26.11 149.47 26.11 149.3 26.03 149.31 26.02 149.35 26 149.31 26.13 149.31 26.13 149.31 26.12 149.38 26.1 149.41 26.1 149.5 26.08 149.61 26.08 149.71 26.1 149.73 26.1 149.79 26.12 149.79 26.12 149.82 26.14 149.83 26.16 149.84 26.17 149.89 26.28 149.84 26.4 149.72 26.43 149.66 26.45 149.59 26.43 149.52 26.41 149.45 26.39 149.39 26.28 149.34 26.21 149.14 25.93 148.86 25.67 148.48 25.75 148.2 25.81 147.94 26.03 147.77 26.25 147.58 26.49 147.43 26.74 147.33 27.03 147.08 27.72 147.17 28.5 147.37 29.19 147.5 29.65 148.23 29.46 148.09 28.99L148.09 28.99Z" fill="#333333"/><path d="M145.17 30.55C144.75 29.95 144.23 29.41 143.54 29.14 142.98 28.92 141.83 28.78 141.58 29.51 141.52 29.69 141.53 29.89 141.58 30.07 141.61 30.2 141.68 30.34 141.63 30.47 141.57 30.62 141.4 30.71 141.29 30.57 141.23 30.49 141.26 30.43 141.31 30.35 141.35 30.29 141.4 30.23 141.45 30.18 141.45 30.18 141.54 30.11 141.54 30.1 141.57 30.08 141.54 30.06 141.47 30.03 141.47 30.05 141.48 30.07 141.47 30.1 141.43 30.18 141.48 30.12 141.44 30.2 141.4 30.26 141.38 30.29 141.33 30.26L141.5 30.36C141.47 30.55 141.48 30.61 141.54 30.55 141.6 30.5 141.59 30.5 141.5 30.55L141.23 30.44 141.25 30.46 141.15 30.29 141.15 30.25C141.17 30.19 141.18 30.12 141.2 30.06L141.2 30.08C141.26 30.02 141.34 29.97 141.41 29.91L141.38 29.91C140.93 30.07 141.12 30.8 141.58 30.64 141.82 30.56 141.95 30.33 141.87 30.09 141.77 29.79 141.42 29.73 141.17 29.88 141 29.98 140.83 30.17 140.78 30.37 140.71 30.65 140.88 30.93 141.15 31.01 142.17 31.3 142.67 29.41 141.57 29.36 141.1 29.34 140.67 29.79 140.53 30.21 140.38 30.65 140.62 31.12 141.04 31.31 141.46 31.5 141.94 31.34 142.21 30.96 142.33 30.79 142.39 30.58 142.39 30.37 142.39 30.26 142.37 30.15 142.34 30.05 142.32 29.98 142.25 29.84 142.28 29.77 142.27 29.8 142.2 29.79 142.32 29.77 142.37 29.77 142.42 29.74 142.48 29.74 142.6 29.72 142.72 29.73 142.84 29.74 143.07 29.76 143.29 29.84 143.49 29.95 143.92 30.18 144.25 30.55 144.52 30.94 144.63 31.11 144.85 31.18 145.03 31.07 145.2 30.97 145.28 30.72 145.16 30.56L145.16 30.56Z" fill="#333333"/></g></svg>